<svg width="470" height="53" viewBox="0 0 470 53" fill="none" xmlns="http://www.w3.org/2000/svg">
<path d="M37.35 23L28.95 22.75C28.0167 22.75 25.35 22.8167 20.95 22.95C20.2833 24.35 19.4 26.2667 18.3 28.7C15.0667 35.9 11.8667 41.9 8.7 46.7C6.13333 50.5667 4.2 52.5 2.9 52.5C2.33333 52.5 1.86667 52.3 1.5 51.9C1.13333 51.5333 0.949999 51.0167 0.949999 50.35C0.949999 49.6833 1.31667 48.9 2.05 48C2.75 47.1 3.65 46.1167 4.75 45.05C5.81667 44.0167 7.23333 42.2833 9 39.85C10.7333 37.4167 12.4 34.6167 14 31.45C14.2667 30.95 15.6167 28.1333 18.05 23H17.8C17.2667 23 16.8 22.85 16.4 22.55C16.0333 22.2167 15.85 21.7667 15.85 21.2C15.85 20.6333 16.05 20.1667 16.45 19.8C16.85 19.4333 17.3667 19.25 18 19.25C18.6667 19.25 19.3 19.2667 19.9 19.3C22.9667 13.0333 25.7667 8.7 28.3 6.3C22.3667 6.76667 19.15 7 18.65 7C18.1833 7 17.7333 6.83333 17.3 6.5C16.9 6.16666 16.7 5.73333 16.7 5.2C16.7 4.63333 16.9 4.16667 17.3 3.8C17.7333 3.4 18.2 3.2 18.7 3.2L29.6 3.5L41.45 3.2C42.05 3.2 42.5333 3.38333 42.9 3.75C43.2667 4.11666 43.45 4.6 43.45 5.2C43.45 5.76666 43.25 6.21666 42.85 6.55C42.4833 6.85 42 7 41.4 7H40.2C40.2 12.3333 40.4167 17.15 40.85 21.45C41.2833 25.75 41.7167 29.0667 42.15 31.4C42.5833 33.7333 42.8 35.2167 42.8 35.85C42.8 36.45 42.6 37.0167 42.2 37.55C41.8333 38.05 41.3333 38.3 40.7 38.3C40.0667 38.3 39.5167 38.0667 39.05 37.6C38.5833 37.1333 38.3167 36.4667 38.25 35.6L37.35 23ZM36.45 6.4L34.95 6.35C30.9833 6.85 26.9167 11.1833 22.75 19.35C26.2833 19.4167 28.5167 19.45 29.45 19.45C30.4167 19.45 32.9667 19.3833 37.1 19.25C36.6667 13.5167 36.45 9.23333 36.45 6.4ZM47.109 20.55C46.3423 19.1833 45.959 18.1667 45.959 17.5C45.959 16.8 46.159 16.25 46.559 15.85C46.959 15.4167 47.5423 15.2 48.309 15.2C49.0757 15.2 49.7923 15.8333 50.459 17.1C51.1257 18.3333 52.259 20.9333 53.859 24.9C55.459 28.8333 56.609 31.8 57.309 33.8L57.709 34.9C58.8757 34.1667 60.159 32.4667 61.559 29.8C62.9923 27.1 63.709 24.6667 63.709 22.5C63.709 21.7667 63.509 20.8833 63.109 19.85C62.709 18.7833 62.509 17.9667 62.509 17.4C62.509 16.8333 62.7257 16.3333 63.159 15.9C63.6257 15.4333 64.2423 15.2 65.009 15.2C65.7757 15.2 66.3923 15.5667 66.859 16.3C67.359 17 67.609 18.2167 67.609 19.95C67.609 21.65 67.009 23.9667 65.809 26.9C64.609 29.8333 63.1257 32.4167 61.359 34.65C59.4257 37.0833 57.709 38.3 56.209 38.3C55.1423 38.3 54.2757 37.4167 53.609 35.65C51.309 29.2833 49.1423 24.25 47.109 20.55ZM87.6918 31.3C87.9251 31.9 88.4085 32.7167 89.1418 33.75C89.9085 34.75 90.2918 35.5667 90.2918 36.2C90.2918 36.8333 90.1251 37.35 89.7918 37.75C89.4585 38.1167 89.0085 38.3 88.4418 38.3C87.0751 38.3 85.8585 36.8833 84.7918 34.05L84.3918 32.95C82.6918 36.5167 80.1418 38.3 76.7418 38.3C75.0418 38.3 73.6251 37.7667 72.4918 36.7C71.3918 35.6 70.8418 34.2333 70.8418 32.6C70.8418 30.0667 71.7085 27.8833 73.4418 26.05C75.1751 24.2167 77.4418 23.2333 80.2418 23.1C79.5751 21.9333 78.8251 21.0667 77.9918 20.5C77.1918 19.9 76.4585 19.55 75.7918 19.45C75.1251 19.35 74.4918 19.3 73.8918 19.3C73.3251 19.2667 72.8751 19.1333 72.5418 18.9C72.2085 18.6667 72.0418 18.2167 72.0418 17.55C72.0418 16.85 72.3085 16.2833 72.8418 15.85C73.4085 15.4167 74.0751 15.2 74.8418 15.2C77.0085 15.2 79.1418 16.2833 81.2418 18.45C83.3418 20.6167 85.1751 24.0167 86.7418 28.65L87.6918 31.3ZM78.9918 25.75C77.7918 25.75 76.7085 26.15 75.7418 26.95C74.8085 27.75 74.3418 28.7833 74.3418 30.05C74.3418 31.3167 74.7585 32.3833 75.5918 33.25C76.4585 34.0833 77.4918 34.5 78.6918 34.5C79.8918 34.5 80.9251 34.0833 81.7918 33.25C82.6585 32.3833 83.0918 31.3667 83.0918 30.2C83.0918 29.3667 82.9418 28.6 82.6418 27.9C82.3418 27.1667 82.1585 26.7167 82.0918 26.55C81.2251 26.0167 80.1918 25.75 78.9918 25.75ZM94.841 34.35C94.841 21.3833 94.7577 13.6333 94.591 11.1C94.291 6.5 94.141 3.81666 94.141 3.05C94.141 2.28333 94.3577 1.66666 94.791 1.2C95.2577 0.73333 95.8077 0.499997 96.441 0.499997C97.0743 0.499997 97.591 0.73333 97.991 1.2C98.391 1.66666 98.591 2.25 98.591 2.95C98.591 5.05 98.5077 7.9 98.341 11.5C98.0077 19.9667 97.841 26.2667 97.841 30.4C97.841 31.4 98.1577 32.3667 98.791 33.3C99.4577 34.2 99.791 35.0167 99.791 35.75C99.791 36.4833 99.541 37.1 99.041 37.6C98.541 38.0667 97.9743 38.3 97.341 38.3C95.6743 38.3 94.841 36.9833 94.841 34.35ZM106.083 34.35C106.083 30.15 106 26.4667 105.833 23.3C105.667 20.1333 105.583 18.2667 105.583 17.7C105.583 17.1333 105.8 16.5833 106.233 16.05C106.7 15.4833 107.25 15.2 107.883 15.2C108.517 15.2 109.033 15.4667 109.433 16C109.833 16.5 110.033 17.25 110.033 18.25C110.033 19.2167 109.917 20.8667 109.683 23.2C109.45 25.5 109.333 27.9 109.333 30.4C109.333 31.4 109.533 32.3667 109.933 33.3C110.367 34.2 110.583 35.0333 110.583 35.8C110.583 36.5333 110.367 37.1333 109.933 37.6C109.533 38.0667 108.967 38.3 108.233 38.3C107.533 38.3 107 37.9 106.633 37.1C106.267 36.3 106.083 35.3833 106.083 34.35ZM107.683 9.55C106.95 9.55 106.367 9.35 105.933 8.95C105.5 8.55 105.283 7.96666 105.283 7.2C105.283 6.43333 105.55 5.78333 106.083 5.25C106.617 4.68333 107.25 4.4 107.983 4.4C108.717 4.4 109.3 4.61666 109.733 5.05C110.2 5.45 110.433 6.03333 110.433 6.8C110.433 7.56667 110.15 8.21667 109.583 8.75C109.05 9.28333 108.417 9.55 107.683 9.55ZM133.444 31.3C133.677 31.9 134.16 32.7167 134.894 33.75C135.66 34.75 136.044 35.5667 136.044 36.2C136.044 36.8333 135.877 37.35 135.544 37.75C135.21 38.1167 134.76 38.3 134.194 38.3C132.827 38.3 131.61 36.8833 130.544 34.05L130.144 32.95C128.444 36.5167 125.894 38.3 122.494 38.3C120.794 38.3 119.377 37.7667 118.244 36.7C117.144 35.6 116.594 34.2333 116.594 32.6C116.594 30.0667 117.46 27.8833 119.194 26.05C120.927 24.2167 123.194 23.2333 125.994 23.1C125.327 21.9333 124.577 21.0667 123.744 20.5C122.944 19.9 122.21 19.55 121.544 19.45C120.877 19.35 120.244 19.3 119.644 19.3C119.077 19.2667 118.627 19.1333 118.294 18.9C117.96 18.6667 117.794 18.2167 117.794 17.55C117.794 16.85 118.06 16.2833 118.594 15.85C119.16 15.4167 119.827 15.2 120.594 15.2C122.76 15.2 124.894 16.2833 126.994 18.45C129.094 20.6167 130.927 24.0167 132.494 28.65L133.444 31.3ZM124.744 25.75C123.544 25.75 122.46 26.15 121.494 26.95C120.56 27.75 120.094 28.7833 120.094 30.05C120.094 31.3167 120.51 32.3833 121.344 33.25C122.21 34.0833 123.244 34.5 124.444 34.5C125.644 34.5 126.677 34.0833 127.544 33.25C128.41 32.3833 128.844 31.3667 128.844 30.2C128.844 29.3667 128.694 28.6 128.394 27.9C128.094 27.1667 127.91 26.7167 127.844 26.55C126.977 26.0167 125.944 25.75 124.744 25.75ZM148.493 44.5L145.893 44.85C145.593 44.85 145.343 44.75 145.143 44.55C144.943 44.35 144.843 44.0333 144.843 43.6C144.843 43.2 145.31 42.6167 146.243 41.85C147.21 41.1167 147.693 40.4 147.693 39.7C147.693 39 147.41 38.5167 146.843 38.25C144.476 38.0833 142.493 37.05 140.893 35.15C139.326 33.25 138.543 30.9333 138.543 28.2C138.543 24.5333 139.926 21.45 142.693 18.95C145.46 16.45 148.51 15.2 151.843 15.2C153.243 15.2 154.376 15.45 155.243 15.95C156.143 16.4167 156.593 17.0333 156.593 17.8C156.593 18.5333 156.36 19.1333 155.893 19.6C155.46 20.0667 155.026 20.3 154.593 20.3C154.16 20.3 153.41 20.1 152.343 19.7C151.31 19.3 150.293 19.1 149.293 19.1C147.093 19.1 145.293 19.8667 143.893 21.4C142.526 22.9 141.843 24.7 141.843 26.8C141.843 28.9 142.56 30.6833 143.993 32.15C145.46 33.6167 147.243 34.35 149.343 34.35C151.21 34.35 152.893 33.6667 154.393 32.3C154.926 31.8333 155.326 31.6 155.593 31.6C155.86 31.6 156.093 31.7 156.293 31.9C156.493 32.1 156.593 32.3167 156.593 32.55C156.593 33.4167 155.776 34.5167 154.143 35.85C152.543 37.15 150.743 37.9333 148.743 38.2C149.01 38.6 149.143 39.1333 149.143 39.8C149.143 40.4667 148.926 40.9667 148.493 41.3C149.726 41.3 150.726 41.65 151.493 42.35C152.293 43.0833 152.693 44.0667 152.693 45.3C152.693 47.3 151.993 49 150.593 50.4C149.193 51.8 147.893 52.5 146.693 52.5C146.093 52.5 145.576 52.3 145.143 51.9C144.743 51.5 144.543 50.9833 144.543 50.35C144.543 49.7167 144.776 49.15 145.243 48.65C145.71 48.15 146.16 47.9 146.593 47.9C147.026 47.9 147.41 48.0167 147.743 48.25C148.076 48.4833 148.426 48.6 148.793 48.6C149.16 48.6 149.526 48.3667 149.893 47.9C150.26 47.4667 150.443 46.9667 150.443 46.4C150.443 45.8667 150.26 45.4167 149.893 45.05C149.56 44.6833 149.093 44.5 148.493 44.5ZM164.355 21.35C162.889 22.8167 162.155 24.6167 162.155 26.75C162.155 28.8833 162.889 30.7 164.355 32.2C165.855 33.6667 167.655 34.4 169.755 34.4C171.889 34.4 173.672 33.6667 175.105 32.2C176.539 30.7 177.255 28.8833 177.255 26.75C177.255 24.6167 176.539 22.8167 175.105 21.35C173.672 19.8833 171.889 19.15 169.755 19.15C167.655 19.15 165.855 19.8833 164.355 21.35ZM166.355 38.3C164.222 38.3 162.439 37.4667 161.005 35.8C159.572 34.1333 158.855 32.05 158.855 29.55C158.855 27.0167 159.639 24.5833 161.205 22.25C162.772 19.8833 164.605 18.1167 166.705 16.95C168.805 15.7833 170.922 15.2 173.055 15.2C175.189 15.2 176.972 16.0333 178.405 17.7C179.839 19.3667 180.555 21.4667 180.555 24C180.555 26.5 179.772 28.9333 178.205 31.3C176.639 33.6333 174.805 35.3833 172.705 36.55C170.605 37.7167 168.489 38.3 166.355 38.3ZM177.555 6.7C177.555 7.76666 177.005 8.98333 175.905 10.35C174.805 11.6833 173.622 12.35 172.355 12.35C171.522 12.35 170.572 11.9833 169.505 11.25C168.439 10.4833 167.555 10.1 166.855 10.1C166.189 10.1 165.655 10.2167 165.255 10.45C164.855 10.6833 164.605 10.9333 164.505 11.2C164.239 11.9667 163.955 12.35 163.655 12.35C163.089 12.35 162.805 12 162.805 11.3C162.805 10.5667 163.205 9.78333 164.005 8.95C164.839 8.08333 165.872 7.65 167.105 7.65C168.372 7.65 169.672 7.91666 171.005 8.45C172.339 8.95 173.289 9.2 173.855 9.2C174.455 9.2 174.939 8.93333 175.305 8.4C175.672 7.83333 175.955 7.28333 176.155 6.75C176.355 6.18333 176.572 5.9 176.805 5.9C177.305 5.9 177.555 6.16667 177.555 6.7ZM193.724 28.05L187.774 27.55C187.208 27.55 186.758 27.6 186.424 27.7C186.624 29.6 187.424 31.1833 188.824 32.45C190.258 33.7167 191.941 34.35 193.874 34.35C195.741 34.35 197.424 33.6667 198.924 32.3C199.458 31.8333 199.858 31.6 200.124 31.6C200.391 31.6 200.624 31.7 200.824 31.9C201.024 32.1 201.124 32.3167 201.124 32.55C201.124 33.5167 200.174 34.7167 198.274 36.15C196.408 37.5833 194.274 38.3 191.874 38.3C189.508 38.3 187.441 37.3333 185.674 35.4C183.941 33.4667 183.074 31.0667 183.074 28.2C183.074 24.5333 184.458 21.45 187.224 18.95C189.991 16.45 193.041 15.2 196.374 15.2C197.774 15.2 198.908 15.45 199.774 15.95C200.674 16.4167 201.124 17.0333 201.124 17.8C201.124 18.5333 200.891 19.1333 200.424 19.6C199.991 20.0667 199.558 20.3 199.124 20.3C198.691 20.3 197.941 20.1 196.874 19.7C195.841 19.3 194.841 19.1 193.874 19.1C192.074 19.1 190.508 19.65 189.174 20.75C187.874 21.8167 187.008 23.15 186.574 24.75L193.474 24.35C195.008 24.35 195.774 24.95 195.774 26.15C195.774 27.4167 195.091 28.05 193.724 28.05ZM208.887 38.3C207.653 38.3 206.653 38.05 205.887 37.55C205.12 37.05 204.737 36.4333 204.737 35.7C204.737 34.9333 204.953 34.3333 205.387 33.9C205.853 33.4333 206.303 33.2 206.737 33.2C207.203 33.2 207.953 33.4 208.987 33.8C210.02 34.2 211.087 34.4 212.187 34.4C213.32 34.4 214.453 34.1167 215.587 33.55C216.72 32.95 217.287 32.2333 217.287 31.4C217.287 30.5333 216.853 29.8667 215.987 29.4C215.153 28.9333 214.137 28.5667 212.937 28.3C211.737 28 210.537 27.6667 209.337 27.3C208.137 26.9333 207.103 26.3833 206.237 25.65C205.403 24.8833 204.987 23.95 204.987 22.85C204.987 21.05 206.137 19.3333 208.437 17.7C210.737 16.0333 213.27 15.2 216.037 15.2C217.37 15.2 218.387 15.45 219.087 15.95C219.82 16.4167 220.187 17.0333 220.187 17.8C220.187 18.5667 219.953 19.1833 219.487 19.65C219.053 20.0833 218.603 20.3 218.137 20.3C217.703 20.3 216.97 20.1 215.937 19.7C214.903 19.3 213.82 19.1 212.687 19.1C211.587 19.1 210.62 19.3333 209.787 19.8C208.987 20.2667 208.587 20.8333 208.587 21.5C208.587 22.1667 209.22 22.75 210.487 23.25C211.787 23.75 213.203 24.15 214.737 24.45C216.27 24.75 217.67 25.35 218.937 26.25C220.237 27.1167 220.887 28.25 220.887 29.65C220.887 31.8167 219.62 33.8 217.087 35.6C214.553 37.4 211.82 38.3 208.887 38.3ZM247.165 38.3C245.065 38.3 243.298 37.4667 241.865 35.8C240.432 34.1333 239.715 32.2167 239.715 30.05C239.715 27.85 240.148 25.8 241.015 23.9C241.882 22 242.982 20.4333 244.315 19.2C245.648 17.9667 247.082 17 248.615 16.3C250.182 15.5667 251.782 15.2 253.415 15.2C255.082 15.2 256.615 15.8167 258.015 17.05C257.982 14.55 257.865 11.8167 257.665 8.85C257.465 5.85 257.365 3.96666 257.365 3.2C257.365 2.43333 257.565 1.8 257.965 1.3C258.365 0.766664 258.882 0.499997 259.515 0.499997C260.148 0.499997 260.682 0.783331 261.115 1.35C261.582 1.88333 261.815 2.61667 261.815 3.55C261.815 4.45 261.665 6.58333 261.365 9.95C261.098 13.2833 260.965 16.4167 260.965 19.35C260.965 22.2833 261.082 24.8333 261.315 27C261.548 29.1333 261.798 30.5833 262.065 31.35C262.832 33.3833 263.215 34.75 263.215 35.45C263.215 37.35 262.482 38.3 261.015 38.3C259.248 38.3 258.215 36.4167 257.915 32.65C256.582 34.4167 254.982 35.8 253.115 36.8C251.248 37.8 249.265 38.3 247.165 38.3ZM245.215 21.35C243.748 22.8167 243.015 24.6167 243.015 26.75C243.015 28.8833 243.748 30.7 245.215 32.2C246.715 33.6667 248.515 34.4 250.615 34.4C252.748 34.4 254.532 33.6667 255.965 32.2C257.398 30.7 258.115 28.8167 258.115 26.55C258.115 24.2833 257.465 22.4833 256.165 21.15C254.865 19.8167 253.082 19.15 250.815 19.15C248.582 19.15 246.715 19.8833 245.215 21.35ZM272.461 21.35C270.994 22.8167 270.261 24.6167 270.261 26.75C270.261 28.8833 270.994 30.7 272.461 32.2C273.961 33.6667 275.761 34.4 277.861 34.4C279.994 34.4 281.778 33.6667 283.211 32.2C284.644 30.7 285.361 28.8833 285.361 26.75C285.361 24.6167 284.644 22.8167 283.211 21.35C281.778 19.8833 279.994 19.15 277.861 19.15C275.761 19.15 273.961 19.8833 272.461 21.35ZM274.461 38.3C272.328 38.3 270.544 37.4667 269.111 35.8C267.678 34.1333 266.961 32.05 266.961 29.55C266.961 27.0167 267.744 24.5833 269.311 22.25C270.878 19.8833 272.711 18.1167 274.811 16.95C276.911 15.7833 279.028 15.2 281.161 15.2C283.294 15.2 285.078 16.0333 286.511 17.7C287.944 19.3667 288.661 21.4667 288.661 24C288.661 26.5 287.878 28.9333 286.311 31.3C284.744 33.6333 282.911 35.3833 280.811 36.55C278.711 37.7167 276.594 38.3 274.461 38.3ZM296.68 38.3C295.446 38.3 294.446 38.05 293.68 37.55C292.913 37.05 292.53 36.4333 292.53 35.7C292.53 34.9333 292.746 34.3333 293.18 33.9C293.646 33.4333 294.096 33.2 294.53 33.2C294.996 33.2 295.746 33.4 296.78 33.8C297.813 34.2 298.88 34.4 299.98 34.4C301.113 34.4 302.246 34.1167 303.38 33.55C304.513 32.95 305.08 32.2333 305.08 31.4C305.08 30.5333 304.646 29.8667 303.78 29.4C302.946 28.9333 301.93 28.5667 300.73 28.3C299.53 28 298.33 27.6667 297.13 27.3C295.93 26.9333 294.896 26.3833 294.03 25.65C293.196 24.8833 292.78 23.95 292.78 22.85C292.78 21.05 293.93 19.3333 296.23 17.7C298.53 16.0333 301.063 15.2 303.83 15.2C305.163 15.2 306.18 15.45 306.88 15.95C307.613 16.4167 307.98 17.0333 307.98 17.8C307.98 18.5667 307.746 19.1833 307.28 19.65C306.846 20.0833 306.396 20.3 305.93 20.3C305.496 20.3 304.763 20.1 303.73 19.7C302.696 19.3 301.613 19.1 300.48 19.1C299.38 19.1 298.413 19.3333 297.58 19.8C296.78 20.2667 296.38 20.8333 296.38 21.5C296.38 22.1667 297.013 22.75 298.28 23.25C299.58 23.75 300.996 24.15 302.53 24.45C304.063 24.75 305.463 25.35 306.73 26.25C308.03 27.1167 308.68 28.25 308.68 29.65C308.68 31.8167 307.413 33.8 304.88 35.6C302.346 37.4 299.613 38.3 296.68 38.3ZM338.258 19.1C336.058 19.1 334.258 19.8667 332.858 21.4C331.491 22.9 330.808 24.7 330.808 26.8C330.808 28.9 331.524 30.6833 332.958 32.15C334.424 33.6167 336.208 34.35 338.308 34.35C340.174 34.35 341.858 33.6667 343.358 32.3C343.891 31.8333 344.291 31.6 344.558 31.6C344.824 31.6 345.058 31.7 345.258 31.9C345.458 32.1 345.558 32.3167 345.558 32.55C345.558 33.5167 344.608 34.7167 342.708 36.15C340.841 37.5833 338.708 38.3 336.308 38.3C333.941 38.3 331.874 37.3333 330.108 35.4C328.374 33.4667 327.508 31.0667 327.508 28.2C327.508 24.5333 328.891 21.45 331.658 18.95C334.424 16.45 337.474 15.2 340.808 15.2C342.208 15.2 343.341 15.45 344.208 15.95C345.108 16.4167 345.558 17.0333 345.558 17.8C345.558 18.5333 345.324 19.1333 344.858 19.6C344.424 20.0667 343.991 20.3 343.558 20.3C343.124 20.3 342.374 20.1 341.308 19.7C340.274 19.3 339.258 19.1 338.258 19.1ZM349.382 34.35C349.382 21.3833 349.299 13.6333 349.132 11.1C348.832 6.5 348.682 3.81666 348.682 3.05C348.682 2.28333 348.899 1.66666 349.332 1.2C349.799 0.73333 350.349 0.499997 350.982 0.499997C351.615 0.499997 352.132 0.73333 352.532 1.2C352.932 1.66666 353.132 2.25 353.132 2.95C353.132 5.05 353.049 7.9 352.882 11.5C352.549 19.9667 352.382 26.2667 352.382 30.4C352.382 31.4 352.699 32.3667 353.332 33.3C353.999 34.2 354.332 35.0167 354.332 35.75C354.332 36.4833 354.082 37.1 353.582 37.6C353.082 38.0667 352.515 38.3 351.882 38.3C350.215 38.3 349.382 36.9833 349.382 34.35ZM360.624 34.35C360.624 30.15 360.541 26.4667 360.374 23.3C360.208 20.1333 360.124 18.2667 360.124 17.7C360.124 17.1333 360.341 16.5833 360.774 16.05C361.241 15.4833 361.791 15.2 362.424 15.2C363.058 15.2 363.574 15.4667 363.974 16C364.374 16.5 364.574 17.25 364.574 18.25C364.574 19.2167 364.458 20.8667 364.224 23.2C363.991 25.5 363.874 27.9 363.874 30.4C363.874 31.4 364.074 32.3667 364.474 33.3C364.908 34.2 365.124 35.0333 365.124 35.8C365.124 36.5333 364.908 37.1333 364.474 37.6C364.074 38.0667 363.508 38.3 362.774 38.3C362.074 38.3 361.541 37.9 361.174 37.1C360.808 36.3 360.624 35.3833 360.624 34.35ZM362.224 9.55C361.491 9.55 360.908 9.35 360.474 8.95C360.041 8.55 359.824 7.96666 359.824 7.2C359.824 6.43333 360.091 5.78333 360.624 5.25C361.158 4.68333 361.791 4.4 362.524 4.4C363.258 4.4 363.841 4.61666 364.274 5.05C364.741 5.45 364.974 6.03333 364.974 6.8C364.974 7.56667 364.691 8.21667 364.124 8.75C363.591 9.28333 362.958 9.55 362.224 9.55ZM380.785 28.05L374.835 27.55C374.268 27.55 373.818 27.6 373.485 27.7C373.685 29.6 374.485 31.1833 375.885 32.45C377.318 33.7167 379.001 34.35 380.935 34.35C382.801 34.35 384.485 33.6667 385.985 32.3C386.518 31.8333 386.918 31.6 387.185 31.6C387.451 31.6 387.685 31.7 387.885 31.9C388.085 32.1 388.185 32.3167 388.185 32.55C388.185 33.5167 387.235 34.7167 385.335 36.15C383.468 37.5833 381.335 38.3 378.935 38.3C376.568 38.3 374.501 37.3333 372.735 35.4C371.001 33.4667 370.135 31.0667 370.135 28.2C370.135 24.5333 371.518 21.45 374.285 18.95C377.051 16.45 380.101 15.2 383.435 15.2C384.835 15.2 385.968 15.45 386.835 15.95C387.735 16.4167 388.185 17.0333 388.185 17.8C388.185 18.5333 387.951 19.1333 387.485 19.6C387.051 20.0667 386.618 20.3 386.185 20.3C385.751 20.3 385.001 20.1 383.935 19.7C382.901 19.3 381.901 19.1 380.935 19.1C379.135 19.1 377.568 19.65 376.235 20.75C374.935 21.8167 374.068 23.15 373.635 24.75L380.535 24.35C382.068 24.35 382.835 24.95 382.835 26.15C382.835 27.4167 382.151 28.05 380.785 28.05ZM396.347 23.7L396.647 35.9C396.647 36.6 396.447 37.1833 396.047 37.65C395.647 38.0833 395.131 38.3 394.497 38.3C393.864 38.3 393.314 38.0833 392.847 37.65C392.414 37.1833 392.197 36.6 392.197 35.9L392.547 26C392.547 26 392.431 23.2167 392.197 17.65C392.197 16.95 392.414 16.3667 392.847 15.9C393.314 15.4333 393.864 15.2 394.497 15.2C395.131 15.2 395.647 15.4333 396.047 15.9C396.447 16.3333 396.647 16.8833 396.647 17.55C396.647 18.2167 396.631 18.7167 396.597 19.05C398.464 16.4833 400.614 15.2 403.047 15.2C406.547 15.2 408.797 17.55 409.797 22.25L411.697 30.85C411.897 31.6167 412.297 32.45 412.897 33.35C413.531 34.2167 413.847 35 413.847 35.7C413.847 37.4333 413.014 38.3 411.347 38.3C409.681 38.3 408.597 36.9833 408.097 34.35L406.197 23.9C405.564 20.5667 403.847 18.9 401.047 18.9C399.614 18.9 398.497 19.3833 397.697 20.35C396.897 21.3167 396.447 22.4333 396.347 23.7ZM429.513 18.9C429.347 18.9 427.263 18.7667 423.263 18.5C423.263 18.9333 423.197 20.5833 423.063 23.45C422.93 26.3167 422.863 28.45 422.863 29.85C422.863 31.2167 423.163 32.3667 423.763 33.3C424.397 34.2 424.713 35.0167 424.713 35.75C424.713 36.4833 424.463 37.1 423.963 37.6C423.463 38.0667 422.897 38.3 422.263 38.3C420.597 38.3 419.763 36.9833 419.763 34.35L419.563 24.2C419.563 22.1333 419.513 20.2833 419.413 18.65H418.213C417.747 18.65 417.363 18.5167 417.063 18.25C416.763 17.95 416.613 17.55 416.613 17.05C416.613 16.55 416.763 16.1667 417.063 15.9C417.363 15.6 417.747 15.45 418.213 15.45H419.263C419.197 13.7167 419.163 12.4 419.163 11.5C419.163 10.5667 419.38 9.83333 419.813 9.3C420.28 8.73333 420.83 8.45 421.463 8.45C422.097 8.45 422.613 8.71667 423.013 9.25C423.413 9.75 423.613 10.5833 423.613 11.75C423.613 12.9167 423.563 14.2 423.463 15.6L429.513 15.2C430.813 15.2 431.463 15.8167 431.463 17.05C431.463 18.2833 430.813 18.9 429.513 18.9ZM441.869 28.05L435.919 27.55C435.352 27.55 434.902 27.6 434.569 27.7C434.769 29.6 435.569 31.1833 436.969 32.45C438.402 33.7167 440.085 34.35 442.019 34.35C443.885 34.35 445.569 33.6667 447.069 32.3C447.602 31.8333 448.002 31.6 448.269 31.6C448.535 31.6 448.769 31.7 448.969 31.9C449.169 32.1 449.269 32.3167 449.269 32.55C449.269 33.5167 448.319 34.7167 446.419 36.15C444.552 37.5833 442.419 38.3 440.019 38.3C437.652 38.3 435.585 37.3333 433.819 35.4C432.085 33.4667 431.219 31.0667 431.219 28.2C431.219 24.5333 432.602 21.45 435.369 18.95C438.135 16.45 441.185 15.2 444.519 15.2C445.919 15.2 447.052 15.45 447.919 15.95C448.819 16.4167 449.269 17.0333 449.269 17.8C449.269 18.5333 449.035 19.1333 448.569 19.6C448.135 20.0667 447.702 20.3 447.269 20.3C446.835 20.3 446.085 20.1 445.019 19.7C443.985 19.3 442.985 19.1 442.019 19.1C440.219 19.1 438.652 19.65 437.319 20.75C436.019 21.8167 435.152 23.15 434.719 24.75L441.619 24.35C443.152 24.35 443.919 24.95 443.919 26.15C443.919 27.4167 443.235 28.05 441.869 28.05ZM457.031 38.3C455.798 38.3 454.798 38.05 454.031 37.55C453.265 37.05 452.881 36.4333 452.881 35.7C452.881 34.9333 453.098 34.3333 453.531 33.9C453.998 33.4333 454.448 33.2 454.881 33.2C455.348 33.2 456.098 33.4 457.131 33.8C458.165 34.2 459.231 34.4 460.331 34.4C461.465 34.4 462.598 34.1167 463.731 33.55C464.865 32.95 465.431 32.2333 465.431 31.4C465.431 30.5333 464.998 29.8667 464.131 29.4C463.298 28.9333 462.281 28.5667 461.081 28.3C459.881 28 458.681 27.6667 457.481 27.3C456.281 26.9333 455.248 26.3833 454.381 25.65C453.548 24.8833 453.131 23.95 453.131 22.85C453.131 21.05 454.281 19.3333 456.581 17.7C458.881 16.0333 461.415 15.2 464.181 15.2C465.515 15.2 466.531 15.45 467.231 15.95C467.965 16.4167 468.331 17.0333 468.331 17.8C468.331 18.5667 468.098 19.1833 467.631 19.65C467.198 20.0833 466.748 20.3 466.281 20.3C465.848 20.3 465.115 20.1 464.081 19.7C463.048 19.3 461.965 19.1 460.831 19.1C459.731 19.1 458.765 19.3333 457.931 19.8C457.131 20.2667 456.731 20.8333 456.731 21.5C456.731 22.1667 457.365 22.75 458.631 23.25C459.931 23.75 461.348 24.15 462.881 24.45C464.415 24.75 465.815 25.35 467.081 26.25C468.381 27.1167 469.031 28.25 469.031 29.65C469.031 31.8167 467.765 33.8 465.231 35.6C462.698 37.4 459.965 38.3 457.031 38.3Z" fill="#30EF00"/>
</svg>
