<svg width="221" height="53" viewBox="0 0 221 53" fill="none" xmlns="http://www.w3.org/2000/svg">
<path d="M37.35 23L28.95 22.75C28.0167 22.75 25.35 22.8167 20.95 22.95C20.2833 24.35 19.4 26.2667 18.3 28.7C15.0667 35.9 11.8667 41.9 8.7 46.7C6.13333 50.5667 4.2 52.5 2.9 52.5C2.33333 52.5 1.86667 52.3 1.5 51.9C1.13333 51.5333 0.949999 51.0167 0.949999 50.35C0.949999 49.6833 1.31667 48.9 2.05 48C2.75 47.1 3.65 46.1167 4.75 45.05C5.81667 44.0167 7.23333 42.2833 9 39.85C10.7333 37.4167 12.4 34.6167 14 31.45C14.2667 30.95 15.6167 28.1333 18.05 23H17.8C17.2667 23 16.8 22.85 16.4 22.55C16.0333 22.2167 15.85 21.7667 15.85 21.2C15.85 20.6333 16.05 20.1667 16.45 19.8C16.85 19.4333 17.3667 19.25 18 19.25C18.6667 19.25 19.3 19.2667 19.9 19.3C22.9667 13.0333 25.7667 8.7 28.3 6.3C22.3667 6.76667 19.15 7 18.65 7C18.1833 7 17.7333 6.83333 17.3 6.5C16.9 6.16666 16.7 5.73333 16.7 5.2C16.7 4.63333 16.9 4.16667 17.3 3.8C17.7333 3.4 18.2 3.2 18.7 3.2L29.6 3.5L41.45 3.2C42.05 3.2 42.5333 3.38333 42.9 3.75C43.2667 4.11666 43.45 4.6 43.45 5.2C43.45 5.76666 43.25 6.21666 42.85 6.55C42.4833 6.85 42 7 41.4 7H40.2C40.2 12.3333 40.4167 17.15 40.85 21.45C41.2833 25.75 41.7167 29.0667 42.15 31.4C42.5833 33.7333 42.8 35.2167 42.8 35.85C42.8 36.45 42.6 37.0167 42.2 37.55C41.8333 38.05 41.3333 38.3 40.7 38.3C40.0667 38.3 39.5167 38.0667 39.05 37.6C38.5833 37.1333 38.3167 36.4667 38.25 35.6L37.35 23ZM36.45 6.4L34.95 6.35C30.9833 6.85 26.9167 11.1833 22.75 19.35C26.2833 19.4167 28.5167 19.45 29.45 19.45C30.4167 19.45 32.9667 19.3833 37.1 19.25C36.6667 13.5167 36.45 9.23333 36.45 6.4ZM47.109 20.55C46.3423 19.1833 45.959 18.1667 45.959 17.5C45.959 16.8 46.159 16.25 46.559 15.85C46.959 15.4167 47.5423 15.2 48.309 15.2C49.0757 15.2 49.7923 15.8333 50.459 17.1C51.1257 18.3333 52.259 20.9333 53.859 24.9C55.459 28.8333 56.609 31.8 57.309 33.8L57.709 34.9C58.8757 34.1667 60.159 32.4667 61.559 29.8C62.9923 27.1 63.709 24.6667 63.709 22.5C63.709 21.7667 63.509 20.8833 63.109 19.85C62.709 18.7833 62.509 17.9667 62.509 17.4C62.509 16.8333 62.7257 16.3333 63.159 15.9C63.6257 15.4333 64.2423 15.2 65.009 15.2C65.7757 15.2 66.3923 15.5667 66.859 16.3C67.359 17 67.609 18.2167 67.609 19.95C67.609 21.65 67.009 23.9667 65.809 26.9C64.609 29.8333 63.1257 32.4167 61.359 34.65C59.4257 37.0833 57.709 38.3 56.209 38.3C55.1423 38.3 54.2757 37.4167 53.609 35.65C51.309 29.2833 49.1423 24.25 47.109 20.55ZM87.6918 31.3C87.9251 31.9 88.4085 32.7167 89.1418 33.75C89.9085 34.75 90.2918 35.5667 90.2918 36.2C90.2918 36.8333 90.1251 37.35 89.7918 37.75C89.4585 38.1167 89.0085 38.3 88.4418 38.3C87.0751 38.3 85.8585 36.8833 84.7918 34.05L84.3918 32.95C82.6918 36.5167 80.1418 38.3 76.7418 38.3C75.0418 38.3 73.6251 37.7667 72.4918 36.7C71.3918 35.6 70.8418 34.2333 70.8418 32.6C70.8418 30.0667 71.7085 27.8833 73.4418 26.05C75.1751 24.2167 77.4418 23.2333 80.2418 23.1C79.5751 21.9333 78.8251 21.0667 77.9918 20.5C77.1918 19.9 76.4585 19.55 75.7918 19.45C75.1251 19.35 74.4918 19.3 73.8918 19.3C73.3251 19.2667 72.8751 19.1333 72.5418 18.9C72.2085 18.6667 72.0418 18.2167 72.0418 17.55C72.0418 16.85 72.3085 16.2833 72.8418 15.85C73.4085 15.4167 74.0751 15.2 74.8418 15.2C77.0085 15.2 79.1418 16.2833 81.2418 18.45C83.3418 20.6167 85.1751 24.0167 86.7418 28.65L87.6918 31.3ZM78.9918 25.75C77.7918 25.75 76.7085 26.15 75.7418 26.95C74.8085 27.75 74.3418 28.7833 74.3418 30.05C74.3418 31.3167 74.7585 32.3833 75.5918 33.25C76.4585 34.0833 77.4918 34.5 78.6918 34.5C79.8918 34.5 80.9251 34.0833 81.7918 33.25C82.6585 32.3833 83.0918 31.3667 83.0918 30.2C83.0918 29.3667 82.9418 28.6 82.6418 27.9C82.3418 27.1667 82.1585 26.7167 82.0918 26.55C81.2251 26.0167 80.1918 25.75 78.9918 25.75ZM94.841 34.35C94.841 21.3833 94.7577 13.6333 94.591 11.1C94.291 6.5 94.141 3.81666 94.141 3.05C94.141 2.28333 94.3577 1.66666 94.791 1.2C95.2577 0.73333 95.8077 0.499997 96.441 0.499997C97.0743 0.499997 97.591 0.73333 97.991 1.2C98.391 1.66666 98.591 2.25 98.591 2.95C98.591 5.05 98.5077 7.9 98.341 11.5C98.0077 19.9667 97.841 26.2667 97.841 30.4C97.841 31.4 98.1577 32.3667 98.791 33.3C99.4577 34.2 99.791 35.0167 99.791 35.75C99.791 36.4833 99.541 37.1 99.041 37.6C98.541 38.0667 97.9743 38.3 97.341 38.3C95.6743 38.3 94.841 36.9833 94.841 34.35ZM106.083 34.35C106.083 30.15 106 26.4667 105.833 23.3C105.667 20.1333 105.583 18.2667 105.583 17.7C105.583 17.1333 105.8 16.5833 106.233 16.05C106.7 15.4833 107.25 15.2 107.883 15.2C108.517 15.2 109.033 15.4667 109.433 16C109.833 16.5 110.033 17.25 110.033 18.25C110.033 19.2167 109.917 20.8667 109.683 23.2C109.45 25.5 109.333 27.9 109.333 30.4C109.333 31.4 109.533 32.3667 109.933 33.3C110.367 34.2 110.583 35.0333 110.583 35.8C110.583 36.5333 110.367 37.1333 109.933 37.6C109.533 38.0667 108.967 38.3 108.233 38.3C107.533 38.3 107 37.9 106.633 37.1C106.267 36.3 106.083 35.3833 106.083 34.35ZM107.683 9.55C106.95 9.55 106.367 9.35 105.933 8.95C105.5 8.55 105.283 7.96666 105.283 7.2C105.283 6.43333 105.55 5.78333 106.083 5.25C106.617 4.68333 107.25 4.4 107.983 4.4C108.717 4.4 109.3 4.61666 109.733 5.05C110.2 5.45 110.433 6.03333 110.433 6.8C110.433 7.56667 110.15 8.21667 109.583 8.75C109.05 9.28333 108.417 9.55 107.683 9.55ZM133.444 31.3C133.677 31.9 134.16 32.7167 134.894 33.75C135.66 34.75 136.044 35.5667 136.044 36.2C136.044 36.8333 135.877 37.35 135.544 37.75C135.21 38.1167 134.76 38.3 134.194 38.3C132.827 38.3 131.61 36.8833 130.544 34.05L130.144 32.95C128.444 36.5167 125.894 38.3 122.494 38.3C120.794 38.3 119.377 37.7667 118.244 36.7C117.144 35.6 116.594 34.2333 116.594 32.6C116.594 30.0667 117.46 27.8833 119.194 26.05C120.927 24.2167 123.194 23.2333 125.994 23.1C125.327 21.9333 124.577 21.0667 123.744 20.5C122.944 19.9 122.21 19.55 121.544 19.45C120.877 19.35 120.244 19.3 119.644 19.3C119.077 19.2667 118.627 19.1333 118.294 18.9C117.96 18.6667 117.794 18.2167 117.794 17.55C117.794 16.85 118.06 16.2833 118.594 15.85C119.16 15.4167 119.827 15.2 120.594 15.2C122.76 15.2 124.894 16.2833 126.994 18.45C129.094 20.6167 130.927 24.0167 132.494 28.65L133.444 31.3ZM124.744 25.75C123.544 25.75 122.46 26.15 121.494 26.95C120.56 27.75 120.094 28.7833 120.094 30.05C120.094 31.3167 120.51 32.3833 121.344 33.25C122.21 34.0833 123.244 34.5 124.444 34.5C125.644 34.5 126.677 34.0833 127.544 33.25C128.41 32.3833 128.844 31.3667 128.844 30.2C128.844 29.3667 128.694 28.6 128.394 27.9C128.094 27.1667 127.91 26.7167 127.844 26.55C126.977 26.0167 125.944 25.75 124.744 25.75ZM148.493 44.5L145.893 44.85C145.593 44.85 145.343 44.75 145.143 44.55C144.943 44.35 144.843 44.0333 144.843 43.6C144.843 43.2 145.31 42.6167 146.243 41.85C147.21 41.1167 147.693 40.4 147.693 39.7C147.693 39 147.41 38.5167 146.843 38.25C144.476 38.0833 142.493 37.05 140.893 35.15C139.326 33.25 138.543 30.9333 138.543 28.2C138.543 24.5333 139.926 21.45 142.693 18.95C145.46 16.45 148.51 15.2 151.843 15.2C153.243 15.2 154.376 15.45 155.243 15.95C156.143 16.4167 156.593 17.0333 156.593 17.8C156.593 18.5333 156.36 19.1333 155.893 19.6C155.46 20.0667 155.026 20.3 154.593 20.3C154.16 20.3 153.41 20.1 152.343 19.7C151.31 19.3 150.293 19.1 149.293 19.1C147.093 19.1 145.293 19.8667 143.893 21.4C142.526 22.9 141.843 24.7 141.843 26.8C141.843 28.9 142.56 30.6833 143.993 32.15C145.46 33.6167 147.243 34.35 149.343 34.35C151.21 34.35 152.893 33.6667 154.393 32.3C154.926 31.8333 155.326 31.6 155.593 31.6C155.86 31.6 156.093 31.7 156.293 31.9C156.493 32.1 156.593 32.3167 156.593 32.55C156.593 33.4167 155.776 34.5167 154.143 35.85C152.543 37.15 150.743 37.9333 148.743 38.2C149.01 38.6 149.143 39.1333 149.143 39.8C149.143 40.4667 148.926 40.9667 148.493 41.3C149.726 41.3 150.726 41.65 151.493 42.35C152.293 43.0833 152.693 44.0667 152.693 45.3C152.693 47.3 151.993 49 150.593 50.4C149.193 51.8 147.893 52.5 146.693 52.5C146.093 52.5 145.576 52.3 145.143 51.9C144.743 51.5 144.543 50.9833 144.543 50.35C144.543 49.7167 144.776 49.15 145.243 48.65C145.71 48.15 146.16 47.9 146.593 47.9C147.026 47.9 147.41 48.0167 147.743 48.25C148.076 48.4833 148.426 48.6 148.793 48.6C149.16 48.6 149.526 48.3667 149.893 47.9C150.26 47.4667 150.443 46.9667 150.443 46.4C150.443 45.8667 150.26 45.4167 149.893 45.05C149.56 44.6833 149.093 44.5 148.493 44.5ZM164.355 21.35C162.889 22.8167 162.155 24.6167 162.155 26.75C162.155 28.8833 162.889 30.7 164.355 32.2C165.855 33.6667 167.655 34.4 169.755 34.4C171.889 34.4 173.672 33.6667 175.105 32.2C176.539 30.7 177.255 28.8833 177.255 26.75C177.255 24.6167 176.539 22.8167 175.105 21.35C173.672 19.8833 171.889 19.15 169.755 19.15C167.655 19.15 165.855 19.8833 164.355 21.35ZM166.355 38.3C164.222 38.3 162.439 37.4667 161.005 35.8C159.572 34.1333 158.855 32.05 158.855 29.55C158.855 27.0167 159.639 24.5833 161.205 22.25C162.772 19.8833 164.605 18.1167 166.705 16.95C168.805 15.7833 170.922 15.2 173.055 15.2C175.189 15.2 176.972 16.0333 178.405 17.7C179.839 19.3667 180.555 21.4667 180.555 24C180.555 26.5 179.772 28.9333 178.205 31.3C176.639 33.6333 174.805 35.3833 172.705 36.55C170.605 37.7167 168.489 38.3 166.355 38.3ZM177.555 6.7C177.555 7.76666 177.005 8.98333 175.905 10.35C174.805 11.6833 173.622 12.35 172.355 12.35C171.522 12.35 170.572 11.9833 169.505 11.25C168.439 10.4833 167.555 10.1 166.855 10.1C166.189 10.1 165.655 10.2167 165.255 10.45C164.855 10.6833 164.605 10.9333 164.505 11.2C164.239 11.9667 163.955 12.35 163.655 12.35C163.089 12.35 162.805 12 162.805 11.3C162.805 10.5667 163.205 9.78333 164.005 8.95C164.839 8.08333 165.872 7.65 167.105 7.65C168.372 7.65 169.672 7.91666 171.005 8.45C172.339 8.95 173.289 9.2 173.855 9.2C174.455 9.2 174.939 8.93333 175.305 8.4C175.672 7.83333 175.955 7.28333 176.155 6.75C176.355 6.18333 176.572 5.9 176.805 5.9C177.305 5.9 177.555 6.16667 177.555 6.7ZM193.724 28.05L187.774 27.55C187.208 27.55 186.758 27.6 186.424 27.7C186.624 29.6 187.424 31.1833 188.824 32.45C190.258 33.7167 191.941 34.35 193.874 34.35C195.741 34.35 197.424 33.6667 198.924 32.3C199.458 31.8333 199.858 31.6 200.124 31.6C200.391 31.6 200.624 31.7 200.824 31.9C201.024 32.1 201.124 32.3167 201.124 32.55C201.124 33.5167 200.174 34.7167 198.274 36.15C196.408 37.5833 194.274 38.3 191.874 38.3C189.508 38.3 187.441 37.3333 185.674 35.4C183.941 33.4667 183.074 31.0667 183.074 28.2C183.074 24.5333 184.458 21.45 187.224 18.95C189.991 16.45 193.041 15.2 196.374 15.2C197.774 15.2 198.908 15.45 199.774 15.95C200.674 16.4167 201.124 17.0333 201.124 17.8C201.124 18.5333 200.891 19.1333 200.424 19.6C199.991 20.0667 199.558 20.3 199.124 20.3C198.691 20.3 197.941 20.1 196.874 19.7C195.841 19.3 194.841 19.1 193.874 19.1C192.074 19.1 190.508 19.65 189.174 20.75C187.874 21.8167 187.008 23.15 186.574 24.75L193.474 24.35C195.008 24.35 195.774 24.95 195.774 26.15C195.774 27.4167 195.091 28.05 193.724 28.05ZM208.887 38.3C207.653 38.3 206.653 38.05 205.887 37.55C205.12 37.05 204.737 36.4333 204.737 35.7C204.737 34.9333 204.953 34.3333 205.387 33.9C205.853 33.4333 206.303 33.2 206.737 33.2C207.203 33.2 207.953 33.4 208.987 33.8C210.02 34.2 211.087 34.4 212.187 34.4C213.32 34.4 214.453 34.1167 215.587 33.55C216.72 32.95 217.287 32.2333 217.287 31.4C217.287 30.5333 216.853 29.8667 215.987 29.4C215.153 28.9333 214.137 28.5667 212.937 28.3C211.737 28 210.537 27.6667 209.337 27.3C208.137 26.9333 207.103 26.3833 206.237 25.65C205.403 24.8833 204.987 23.95 204.987 22.85C204.987 21.05 206.137 19.3333 208.437 17.7C210.737 16.0333 213.27 15.2 216.037 15.2C217.37 15.2 218.387 15.45 219.087 15.95C219.82 16.4167 220.187 17.0333 220.187 17.8C220.187 18.5667 219.953 19.1833 219.487 19.65C219.053 20.0833 218.603 20.3 218.137 20.3C217.703 20.3 216.97 20.1 215.937 19.7C214.903 19.3 213.82 19.1 212.687 19.1C211.587 19.1 210.62 19.3333 209.787 19.8C208.987 20.2667 208.587 20.8333 208.587 21.5C208.587 22.1667 209.22 22.75 210.487 23.25C211.787 23.75 213.203 24.15 214.737 24.45C216.27 24.75 217.67 25.35 218.937 26.25C220.237 27.1167 220.887 28.25 220.887 29.65C220.887 31.8167 219.62 33.8 217.087 35.6C214.553 37.4 211.82 38.3 208.887 38.3Z" fill="#202020"/>
</svg>
