<svg width="522" height="53" viewBox="0 0 522 53" fill="none" xmlns="http://www.w3.org/2000/svg">
<path d="M23.35 16.1L25.45 16.55C26.5167 16.55 27.05 15.7833 27.05 14.25C27.05 12.6833 26.05 11.0167 24.05 9.25C22.0833 7.48333 19.5833 6.6 16.55 6.6C12.75 6.6 9.76667 7.8 7.6 10.2C5.43333 12.5667 4.35 15.8 4.35 19.9C4.35 23.9667 5.55 27.4833 7.95 30.45C10.35 33.4167 13.4167 34.9 17.15 34.9C20.8833 34.9 24.2167 33.1333 27.15 29.6C27.7833 28.8 28.2667 28.4 28.6 28.4C28.9333 28.4 29.1833 28.5167 29.35 28.75C29.55 28.95 29.65 29.2667 29.65 29.7C29.65 30.1333 29.3 30.8333 28.6 31.8C27.9333 32.7333 27.0167 33.7 25.85 34.7C24.7167 35.6667 23.2167 36.5167 21.35 37.25C19.5167 37.95 17.6 38.3 15.6 38.3C11.2 38.3 7.53333 36.7333 4.6 33.6C1.7 30.4667 0.25 26.4333 0.25 21.5C0.25 16.5333 1.91667 12.25 5.25 8.65C8.61667 5.01667 12.8 3.2 17.8 3.2C21.3 3.2 24.1667 4.11666 26.4 5.95C28.6667 7.75 29.8 10.0333 29.8 12.8C29.8 15 29.1167 16.8333 27.75 18.3C26.4167 19.7333 25 20.45 23.5 20.45C22.7 20.45 22.1 20.2333 21.7 19.8C21.3333 19.3667 21.15 18.8667 21.15 18.3C21.15 17.7333 21.3667 17.2333 21.8 16.8C22.2667 16.3333 22.7833 16.1 23.35 16.1ZM38.5625 21.35C37.0958 22.8167 36.3625 24.6167 36.3625 26.75C36.3625 28.8833 37.0958 30.7 38.5625 32.2C40.0625 33.6667 41.8625 34.4 43.9625 34.4C46.0958 34.4 47.8792 33.6667 49.3125 32.2C50.7458 30.7 51.4625 28.8833 51.4625 26.75C51.4625 24.6167 50.7458 22.8167 49.3125 21.35C47.8792 19.8833 46.0958 19.15 43.9625 19.15C41.8625 19.15 40.0625 19.8833 38.5625 21.35ZM40.5625 38.3C38.4292 38.3 36.6458 37.4667 35.2125 35.8C33.7792 34.1333 33.0625 32.05 33.0625 29.55C33.0625 27.0167 33.8458 24.5833 35.4125 22.25C36.9792 19.8833 38.8125 18.1167 40.9125 16.95C43.0125 15.7833 45.1292 15.2 47.2625 15.2C49.3958 15.2 51.1792 16.0333 52.6125 17.7C54.0458 19.3667 54.7625 21.4667 54.7625 24C54.7625 26.5 53.9792 28.9333 52.4125 31.3C50.8458 33.6333 49.0125 35.3833 46.9125 36.55C44.8125 37.7167 42.6958 38.3 40.5625 38.3ZM63.1813 23.7L63.4813 35.9C63.4813 36.6 63.2813 37.1833 62.8813 37.65C62.4813 38.0833 61.9646 38.3 61.3313 38.3C60.6979 38.3 60.1479 38.0833 59.6813 37.65C59.2479 37.1833 59.0313 36.6 59.0313 35.9L59.3813 26C59.3813 26 59.2646 23.2167 59.0313 17.65C59.0313 16.95 59.2479 16.3667 59.6813 15.9C60.1479 15.4333 60.6979 15.2 61.3313 15.2C61.9646 15.2 62.4813 15.4333 62.8813 15.9C63.2813 16.3333 63.4813 16.8833 63.4813 17.55C63.4813 18.2167 63.4646 18.7167 63.4313 19.05C65.2979 16.4833 67.4479 15.2 69.8813 15.2C73.3813 15.2 75.6313 17.55 76.6313 22.25L78.5313 30.85C78.7313 31.6167 79.1313 32.45 79.7313 33.35C80.3646 34.2167 80.6813 35 80.6813 35.7C80.6813 37.4333 79.8479 38.3 78.1813 38.3C76.5146 38.3 75.4313 36.9833 74.9313 34.35L73.0313 23.9C72.3979 20.5667 70.6813 18.9 67.8813 18.9C66.4479 18.9 65.3313 19.3833 64.5313 20.35C63.7313 21.3167 63.2813 22.4333 63.1813 23.7ZM104.897 30.85C105.097 31.8167 105.531 32.6833 106.197 33.45C106.897 34.1833 107.247 34.9333 107.247 35.7C107.247 36.4667 106.981 37.1 106.447 37.6C105.914 38.0667 105.331 38.3 104.697 38.3C104.064 38.3 103.547 38.1833 103.147 37.95C102.747 37.7167 102.414 37.3667 102.147 36.9C101.781 36.2 101.497 35.35 101.297 34.35L99.0973 23.9C98.7639 22.3667 98.2306 21.15 97.4973 20.25C96.7973 19.35 95.6973 18.9 94.1973 18.9C92.7306 18.9 91.5806 19.4167 90.7473 20.45C89.9473 21.45 89.5306 22.55 89.4973 23.75C89.7639 31.65 89.8973 35.8333 89.8973 36.3C89.8973 36.7333 89.6973 37.1833 89.2973 37.65C88.8973 38.0833 88.3806 38.3 87.7473 38.3C87.1139 38.3 86.5639 38.0833 86.0973 37.65C85.6639 37.1833 85.4473 36.4333 85.4473 35.4C85.4473 34.3667 85.5306 31.9167 85.6973 28.05C85.8639 24.15 85.9473 21.1333 85.9473 19C85.9473 16.8667 85.8639 14 85.6973 10.4C85.5306 6.8 85.4473 4.48333 85.4473 3.45C85.4473 2.41666 85.6639 1.66666 86.0973 1.2C86.5639 0.73333 87.1139 0.499997 87.7473 0.499997C88.3806 0.499997 88.8973 0.73333 89.2973 1.2C89.6973 1.63333 89.8973 2.36666 89.8973 3.4C89.8973 4.4 89.8139 6.76666 89.6473 10.5C89.5139 14.2 89.4473 17.2333 89.4473 19.6C91.4139 16.6667 93.6806 15.2 96.2473 15.2C99.7473 15.2 101.997 17.55 102.997 22.25L104.897 30.85ZM120.91 28.05L114.96 27.55C114.393 27.55 113.943 27.6 113.61 27.7C113.81 29.6 114.61 31.1833 116.01 32.45C117.443 33.7167 119.126 34.35 121.06 34.35C122.926 34.35 124.61 33.6667 126.11 32.3C126.643 31.8333 127.043 31.6 127.31 31.6C127.576 31.6 127.81 31.7 128.01 31.9C128.21 32.1 128.31 32.3167 128.31 32.55C128.31 33.5167 127.36 34.7167 125.46 36.15C123.593 37.5833 121.46 38.3 119.06 38.3C116.693 38.3 114.626 37.3333 112.86 35.4C111.126 33.4667 110.26 31.0667 110.26 28.2C110.26 24.5333 111.643 21.45 114.41 18.95C117.176 16.45 120.226 15.2 123.56 15.2C124.96 15.2 126.093 15.45 126.96 15.95C127.86 16.4167 128.31 17.0333 128.31 17.8C128.31 18.5333 128.076 19.1333 127.61 19.6C127.176 20.0667 126.743 20.3 126.31 20.3C125.876 20.3 125.126 20.1 124.06 19.7C123.026 19.3 122.026 19.1 121.06 19.1C119.26 19.1 117.693 19.65 116.36 20.75C115.06 21.8167 114.193 23.15 113.76 24.75L120.66 24.35C122.193 24.35 122.96 24.95 122.96 26.15C122.96 27.4167 122.276 28.05 120.91 28.05ZM140.522 44.5L137.922 44.85C137.622 44.85 137.372 44.75 137.172 44.55C136.972 44.35 136.872 44.0333 136.872 43.6C136.872 43.2 137.339 42.6167 138.272 41.85C139.239 41.1167 139.722 40.4 139.722 39.7C139.722 39 139.439 38.5167 138.872 38.25C136.506 38.0833 134.522 37.05 132.922 35.15C131.356 33.25 130.572 30.9333 130.572 28.2C130.572 24.5333 131.956 21.45 134.722 18.95C137.489 16.45 140.539 15.2 143.872 15.2C145.272 15.2 146.406 15.45 147.272 15.95C148.172 16.4167 148.622 17.0333 148.622 17.8C148.622 18.5333 148.389 19.1333 147.922 19.6C147.489 20.0667 147.056 20.3 146.622 20.3C146.189 20.3 145.439 20.1 144.372 19.7C143.339 19.3 142.322 19.1 141.322 19.1C139.122 19.1 137.322 19.8667 135.922 21.4C134.556 22.9 133.872 24.7 133.872 26.8C133.872 28.9 134.589 30.6833 136.022 32.15C137.489 33.6167 139.272 34.35 141.372 34.35C143.239 34.35 144.922 33.6667 146.422 32.3C146.956 31.8333 147.356 31.6 147.622 31.6C147.889 31.6 148.122 31.7 148.322 31.9C148.522 32.1 148.622 32.3167 148.622 32.55C148.622 33.4167 147.806 34.5167 146.172 35.85C144.572 37.15 142.772 37.9333 140.772 38.2C141.039 38.6 141.172 39.1333 141.172 39.8C141.172 40.4667 140.956 40.9667 140.522 41.3C141.756 41.3 142.756 41.65 143.522 42.35C144.322 43.0833 144.722 44.0667 144.722 45.3C144.722 47.3 144.022 49 142.622 50.4C141.222 51.8 139.922 52.5 138.722 52.5C138.122 52.5 137.606 52.3 137.172 51.9C136.772 51.5 136.572 50.9833 136.572 50.35C136.572 49.7167 136.806 49.15 137.272 48.65C137.739 48.15 138.189 47.9 138.622 47.9C139.056 47.9 139.439 48.0167 139.772 48.25C140.106 48.4833 140.456 48.6 140.822 48.6C141.189 48.6 141.556 48.3667 141.922 47.9C142.289 47.4667 142.472 46.9667 142.472 46.4C142.472 45.8667 142.289 45.4167 141.922 45.05C141.589 44.6833 141.122 44.5 140.522 44.5ZM168.735 31.3C168.968 31.9 169.451 32.7167 170.185 33.75C170.951 34.75 171.335 35.5667 171.335 36.2C171.335 36.8333 171.168 37.35 170.835 37.75C170.501 38.1167 170.051 38.3 169.485 38.3C168.118 38.3 166.901 36.8833 165.835 34.05L165.435 32.95C163.735 36.5167 161.185 38.3 157.785 38.3C156.085 38.3 154.668 37.7667 153.535 36.7C152.435 35.6 151.885 34.2333 151.885 32.6C151.885 30.0667 152.751 27.8833 154.485 26.05C156.218 24.2167 158.485 23.2333 161.285 23.1C160.618 21.9333 159.868 21.0667 159.035 20.5C158.235 19.9 157.501 19.55 156.835 19.45C156.168 19.35 155.535 19.3 154.935 19.3C154.368 19.2667 153.918 19.1333 153.585 18.9C153.251 18.6667 153.085 18.2167 153.085 17.55C153.085 16.85 153.351 16.2833 153.885 15.85C154.451 15.4167 155.118 15.2 155.885 15.2C158.051 15.2 160.185 16.2833 162.285 18.45C164.385 20.6167 166.218 24.0167 167.785 28.65L168.735 31.3ZM160.035 25.75C158.835 25.75 157.751 26.15 156.785 26.95C155.851 27.75 155.385 28.7833 155.385 30.05C155.385 31.3167 155.801 32.3833 156.635 33.25C157.501 34.0833 158.535 34.5 159.735 34.5C160.935 34.5 161.968 34.0833 162.835 33.25C163.701 32.3833 164.135 31.3667 164.135 30.2C164.135 29.3667 163.985 28.6 163.685 27.9C163.385 27.1667 163.201 26.7167 163.135 26.55C162.268 26.0167 161.235 25.75 160.035 25.75ZM194.724 23.7L195.024 35.9C195.024 36.6 194.824 37.1833 194.424 37.65C194.024 38.0833 193.508 38.3 192.874 38.3C192.241 38.3 191.691 38.0833 191.224 37.65C190.791 37.1833 190.574 36.6 190.574 35.9L190.924 26C190.924 26 190.808 23.2167 190.574 17.65C190.574 16.95 190.791 16.3667 191.224 15.9C191.691 15.4333 192.241 15.2 192.874 15.2C193.508 15.2 194.024 15.4333 194.424 15.9C194.824 16.3333 195.024 16.8833 195.024 17.55C195.024 18.2167 195.008 18.7167 194.974 19.05C196.841 16.4833 198.991 15.2 201.424 15.2C204.924 15.2 207.174 17.55 208.174 22.25L210.074 30.85C210.274 31.6167 210.674 32.45 211.274 33.35C211.908 34.2167 212.224 35 212.224 35.7C212.224 37.4333 211.391 38.3 209.724 38.3C208.058 38.3 206.974 36.9833 206.474 34.35L204.574 23.9C203.941 20.5667 202.224 18.9 199.424 18.9C197.991 18.9 196.874 19.3833 196.074 20.35C195.274 21.3167 194.824 22.4333 194.724 23.7ZM220.74 21.35C219.274 22.8167 218.54 24.6167 218.54 26.75C218.54 28.8833 219.274 30.7 220.74 32.2C222.24 33.6667 224.04 34.4 226.14 34.4C228.274 34.4 230.057 33.6667 231.49 32.2C232.924 30.7 233.64 28.8833 233.64 26.75C233.64 24.6167 232.924 22.8167 231.49 21.35C230.057 19.8833 228.274 19.15 226.14 19.15C224.04 19.15 222.24 19.8833 220.74 21.35ZM222.74 38.3C220.607 38.3 218.824 37.4667 217.39 35.8C215.957 34.1333 215.24 32.05 215.24 29.55C215.24 27.0167 216.024 24.5833 217.59 22.25C219.157 19.8833 220.99 18.1167 223.09 16.95C225.19 15.7833 227.307 15.2 229.44 15.2C231.574 15.2 233.357 16.0333 234.79 17.7C236.224 19.3667 236.94 21.4667 236.94 24C236.94 26.5 236.157 28.9333 234.59 31.3C233.024 33.6333 231.19 35.3833 229.09 36.55C226.99 37.7167 224.874 38.3 222.74 38.3ZM244.959 38.3C243.726 38.3 242.726 38.05 241.959 37.55C241.192 37.05 240.809 36.4333 240.809 35.7C240.809 34.9333 241.026 34.3333 241.459 33.9C241.926 33.4333 242.376 33.2 242.809 33.2C243.276 33.2 244.026 33.4 245.059 33.8C246.092 34.2 247.159 34.4 248.259 34.4C249.392 34.4 250.526 34.1167 251.659 33.55C252.792 32.95 253.359 32.2333 253.359 31.4C253.359 30.5333 252.926 29.8667 252.059 29.4C251.226 28.9333 250.209 28.5667 249.009 28.3C247.809 28 246.609 27.6667 245.409 27.3C244.209 26.9333 243.176 26.3833 242.309 25.65C241.476 24.8833 241.059 23.95 241.059 22.85C241.059 21.05 242.209 19.3333 244.509 17.7C246.809 16.0333 249.342 15.2 252.109 15.2C253.442 15.2 254.459 15.45 255.159 15.95C255.892 16.4167 256.259 17.0333 256.259 17.8C256.259 18.5667 256.026 19.1833 255.559 19.65C255.126 20.0833 254.676 20.3 254.209 20.3C253.776 20.3 253.042 20.1 252.009 19.7C250.976 19.3 249.892 19.1 248.759 19.1C247.659 19.1 246.692 19.3333 245.859 19.8C245.059 20.2667 244.659 20.8333 244.659 21.5C244.659 22.1667 245.292 22.75 246.559 23.25C247.859 23.75 249.276 24.15 250.809 24.45C252.342 24.75 253.742 25.35 255.009 26.25C256.309 27.1167 256.959 28.25 256.959 29.65C256.959 31.8167 255.692 33.8 253.159 35.6C250.626 37.4 247.892 38.3 244.959 38.3ZM266.297 38.3C265.064 38.3 264.064 38.05 263.297 37.55C262.53 37.05 262.147 36.4333 262.147 35.7C262.147 34.9333 262.364 34.3333 262.797 33.9C263.264 33.4333 263.714 33.2 264.147 33.2C264.614 33.2 265.364 33.4 266.397 33.8C267.43 34.2 268.497 34.4 269.597 34.4C270.73 34.4 271.864 34.1167 272.997 33.55C274.13 32.95 274.697 32.2333 274.697 31.4C274.697 30.5333 274.264 29.8667 273.397 29.4C272.564 28.9333 271.547 28.5667 270.347 28.3C269.147 28 267.947 27.6667 266.747 27.3C265.547 26.9333 264.514 26.3833 263.647 25.65C262.814 24.8833 262.397 23.95 262.397 22.85C262.397 21.05 263.547 19.3333 265.847 17.7C268.147 16.0333 270.68 15.2 273.447 15.2C274.78 15.2 275.797 15.45 276.497 15.95C277.23 16.4167 277.597 17.0333 277.597 17.8C277.597 18.5667 277.364 19.1833 276.897 19.65C276.464 20.0833 276.014 20.3 275.547 20.3C275.114 20.3 274.38 20.1 273.347 19.7C272.314 19.3 271.23 19.1 270.097 19.1C268.997 19.1 268.03 19.3333 267.197 19.8C266.397 20.2667 265.997 20.8333 265.997 21.5C265.997 22.1667 266.63 22.75 267.897 23.25C269.197 23.75 270.614 24.15 272.147 24.45C273.68 24.75 275.08 25.35 276.347 26.25C277.647 27.1167 278.297 28.25 278.297 29.65C278.297 31.8167 277.03 33.8 274.497 35.6C271.964 37.4 269.23 38.3 266.297 38.3ZM287.635 21.35C286.168 22.8167 285.435 24.6167 285.435 26.75C285.435 28.8833 286.168 30.7 287.635 32.2C289.135 33.6667 290.935 34.4 293.035 34.4C295.168 34.4 296.951 33.6667 298.385 32.2C299.818 30.7 300.535 28.8833 300.535 26.75C300.535 24.6167 299.818 22.8167 298.385 21.35C296.951 19.8833 295.168 19.15 293.035 19.15C290.935 19.15 289.135 19.8833 287.635 21.35ZM289.635 38.3C287.501 38.3 285.718 37.4667 284.285 35.8C282.851 34.1333 282.135 32.05 282.135 29.55C282.135 27.0167 282.918 24.5833 284.485 22.25C286.051 19.8833 287.885 18.1167 289.985 16.95C292.085 15.7833 294.201 15.2 296.335 15.2C298.468 15.2 300.251 16.0333 301.685 17.7C303.118 19.3667 303.835 21.4667 303.835 24C303.835 26.5 303.051 28.9333 301.485 31.3C299.918 33.6333 298.085 35.3833 295.985 36.55C293.885 37.7167 291.768 38.3 289.635 38.3ZM311.854 38.3C310.62 38.3 309.62 38.05 308.854 37.55C308.087 37.05 307.704 36.4333 307.704 35.7C307.704 34.9333 307.92 34.3333 308.354 33.9C308.82 33.4333 309.27 33.2 309.704 33.2C310.17 33.2 310.92 33.4 311.954 33.8C312.987 34.2 314.054 34.4 315.154 34.4C316.287 34.4 317.42 34.1167 318.554 33.55C319.687 32.95 320.254 32.2333 320.254 31.4C320.254 30.5333 319.82 29.8667 318.954 29.4C318.12 28.9333 317.104 28.5667 315.904 28.3C314.704 28 313.504 27.6667 312.304 27.3C311.104 26.9333 310.07 26.3833 309.204 25.65C308.37 24.8833 307.954 23.95 307.954 22.85C307.954 21.05 309.104 19.3333 311.404 17.7C313.704 16.0333 316.237 15.2 319.004 15.2C320.337 15.2 321.354 15.45 322.054 15.95C322.787 16.4167 323.154 17.0333 323.154 17.8C323.154 18.5667 322.92 19.1833 322.454 19.65C322.02 20.0833 321.57 20.3 321.104 20.3C320.67 20.3 319.937 20.1 318.904 19.7C317.87 19.3 316.787 19.1 315.654 19.1C314.554 19.1 313.587 19.3333 312.754 19.8C311.954 20.2667 311.554 20.8333 311.554 21.5C311.554 22.1667 312.187 22.75 313.454 23.25C314.754 23.75 316.17 24.15 317.704 24.45C319.237 24.75 320.637 25.35 321.904 26.25C323.204 27.1167 323.854 28.25 323.854 29.65C323.854 31.8167 322.587 33.8 320.054 35.6C317.52 37.4 314.787 38.3 311.854 38.3ZM347.332 52.5C346.698 52.5 346.132 52.25 345.632 51.75C345.165 51.2833 344.932 50.6 344.932 49.7C344.932 49.5333 345.082 48.4333 345.382 46.4C345.715 44.3667 345.882 40.9667 345.882 36.2C345.882 31.4333 345.798 27.0667 345.632 23.1C345.598 22.3333 345.298 21.45 344.732 20.45C344.198 19.45 343.932 18.5667 343.932 17.8C343.932 17.0333 344.182 16.4167 344.682 15.95C345.182 15.45 345.748 15.2 346.382 15.2C348.048 15.2 348.882 16.5167 348.882 19.15V21.5C350.282 19.5667 351.965 18.0333 353.932 16.9C355.932 15.7667 357.782 15.2 359.482 15.2C361.715 15.2 363.515 16.0333 364.882 17.7C366.248 19.3333 366.932 21.25 366.932 23.45C366.932 25.65 366.498 27.7 365.632 29.6C364.765 31.5 363.665 33.0667 362.332 34.3C360.998 35.5333 359.582 36.5167 358.082 37.25C356.582 37.95 355.148 38.3 353.782 38.3C352.182 38.3 351.382 37.5167 351.382 35.95C351.382 35.25 351.632 34.7333 352.132 34.4C352.632 34.0667 353.132 33.9 353.632 33.9C354.132 33.9 354.648 33.9833 355.182 34.15C355.748 34.3167 356.265 34.4 356.732 34.4C358.732 34.4 360.415 33.6667 361.782 32.2C363.148 30.7 363.832 28.8833 363.832 26.75C363.832 24.6167 363.148 22.8167 361.782 21.35C360.415 19.8833 358.732 19.15 356.732 19.15C354.132 19.15 352.215 20.2 350.982 22.3C349.782 24.4 349.182 27.2667 349.182 30.9C349.182 32.8333 349.315 35.8833 349.582 40.05C349.848 44.2167 349.982 47.05 349.982 48.55C349.982 51.1833 349.098 52.5 347.332 52.5ZM375.839 26.25L376.239 35.3C376.239 36.2 376.006 36.9333 375.539 37.5C375.106 38.0333 374.573 38.3 373.939 38.3C373.306 38.3 372.789 38.05 372.389 37.55C371.989 37.0167 371.789 36.3 371.789 35.4C371.789 34.5 371.873 33.2167 372.039 31.55C372.373 28.2167 372.539 25.4 372.539 23.1C372.539 22.1 372.223 21.15 371.589 20.25C370.989 19.3167 370.689 18.4833 370.689 17.75C370.689 17.0167 370.939 16.4167 371.439 15.95C371.939 15.45 372.506 15.2 373.139 15.2C374.806 15.2 375.639 16.5167 375.639 19.15V21.1C376.639 19.3 377.839 17.8667 379.239 16.8C380.639 15.7333 381.923 15.2 383.089 15.2C384.256 15.2 385.139 15.5 385.739 16.1C386.373 16.6667 386.689 17.4333 386.689 18.4C386.689 19.3667 386.456 20.1833 385.989 20.85C385.523 21.4833 385.023 21.8 384.489 21.8C383.956 21.8 383.539 21.6667 383.239 21.4C382.973 21.1 382.773 20.8 382.639 20.5C382.506 20.1667 382.256 19.8667 381.889 19.6C381.523 19.3 381.056 19.15 380.489 19.15C379.523 19.15 378.556 19.7833 377.589 21.05C376.623 22.3167 376.039 24.05 375.839 26.25ZM394.422 21.35C392.955 22.8167 392.222 24.6167 392.222 26.75C392.222 28.8833 392.955 30.7 394.422 32.2C395.922 33.6667 397.722 34.4 399.822 34.4C401.955 34.4 403.739 33.6667 405.172 32.2C406.605 30.7 407.322 28.8833 407.322 26.75C407.322 24.6167 406.605 22.8167 405.172 21.35C403.739 19.8833 401.955 19.15 399.822 19.15C397.722 19.15 395.922 19.8833 394.422 21.35ZM396.422 38.3C394.289 38.3 392.505 37.4667 391.072 35.8C389.639 34.1333 388.922 32.05 388.922 29.55C388.922 27.0167 389.705 24.5833 391.272 22.25C392.839 19.8833 394.672 18.1167 396.772 16.95C398.872 15.7833 400.989 15.2 403.122 15.2C405.255 15.2 407.039 16.0333 408.472 17.7C409.905 19.3667 410.622 21.4667 410.622 24C410.622 26.5 409.839 28.9333 408.272 31.3C406.705 33.6333 404.872 35.3833 402.772 36.55C400.672 37.7167 398.555 38.3 396.422 38.3ZM420.591 38.3C418.491 38.3 416.724 37.4667 415.291 35.8C413.857 34.1333 413.141 32.2167 413.141 30.05C413.141 27.85 413.574 25.8 414.441 23.9C415.307 22 416.407 20.4333 417.741 19.2C419.074 17.9667 420.507 17 422.041 16.3C423.607 15.5667 425.207 15.2 426.841 15.2C428.507 15.2 430.041 15.8167 431.441 17.05C431.407 14.55 431.291 11.8167 431.091 8.85C430.891 5.85 430.791 3.96666 430.791 3.2C430.791 2.43333 430.991 1.8 431.391 1.3C431.791 0.766664 432.307 0.499997 432.941 0.499997C433.574 0.499997 434.107 0.783331 434.541 1.35C435.007 1.88333 435.241 2.61667 435.241 3.55C435.241 4.45 435.091 6.58333 434.791 9.95C434.524 13.2833 434.391 16.4167 434.391 19.35C434.391 22.2833 434.507 24.8333 434.741 27C434.974 29.1333 435.224 30.5833 435.491 31.35C436.257 33.3833 436.641 34.75 436.641 35.45C436.641 37.35 435.907 38.3 434.441 38.3C432.674 38.3 431.641 36.4167 431.341 32.65C430.007 34.4167 428.407 35.8 426.541 36.8C424.674 37.8 422.691 38.3 420.591 38.3ZM418.641 21.35C417.174 22.8167 416.441 24.6167 416.441 26.75C416.441 28.8833 417.174 30.7 418.641 32.2C420.141 33.6667 421.941 34.4 424.041 34.4C426.174 34.4 427.957 33.6667 429.391 32.2C430.824 30.7 431.541 28.8167 431.541 26.55C431.541 24.2833 430.891 22.4833 429.591 21.15C428.291 19.8167 426.507 19.15 424.241 19.15C422.007 19.15 420.141 19.8833 418.641 21.35ZM456.587 29.45L456.087 18.2C456.087 17.3 456.303 16.5833 456.737 16.05C457.203 15.4833 457.753 15.2 458.387 15.2C459.02 15.2 459.537 15.4667 459.937 16C460.337 16.5 460.537 17.2 460.537 18.1C460.537 18.9667 460.437 20.2 460.237 21.8C459.837 25 459.637 27.8667 459.637 30.4C459.637 31.4 459.953 32.3667 460.587 33.3C461.253 34.2 461.587 35.0167 461.587 35.75C461.587 36.4833 461.337 37.1 460.837 37.6C460.337 38.0667 459.77 38.3 459.137 38.3C457.47 38.3 456.637 36.9833 456.637 34.35C455.07 36.9833 453.103 38.3 450.737 38.3C448.837 38.3 447.32 37.6167 446.187 36.25C445.087 34.8833 444.32 33.2167 443.887 31.25L441.987 22.65C441.787 21.6833 441.337 20.8333 440.637 20.1C439.97 19.3333 439.637 18.5667 439.637 17.8C439.637 17.0333 439.903 16.4167 440.437 15.95C440.97 15.45 441.603 15.2 442.337 15.2C444.003 15.2 445.087 16.5167 445.587 19.15L447.487 29.6C448.12 32.9333 449.703 34.6 452.237 34.6C453.47 34.6 454.487 34.1167 455.287 33.15C456.087 32.15 456.52 30.9167 456.587 29.45ZM477.988 18.9C477.821 18.9 475.738 18.7667 471.738 18.5C471.738 18.9333 471.671 20.5833 471.538 23.45C471.405 26.3167 471.338 28.45 471.338 29.85C471.338 31.2167 471.638 32.3667 472.238 33.3C472.871 34.2 473.188 35.0167 473.188 35.75C473.188 36.4833 472.938 37.1 472.438 37.6C471.938 38.0667 471.371 38.3 470.738 38.3C469.071 38.3 468.238 36.9833 468.238 34.35L468.038 24.2C468.038 22.1333 467.988 20.2833 467.888 18.65H466.688C466.221 18.65 465.838 18.5167 465.538 18.25C465.238 17.95 465.088 17.55 465.088 17.05C465.088 16.55 465.238 16.1667 465.538 15.9C465.838 15.6 466.221 15.45 466.688 15.45H467.738C467.671 13.7167 467.638 12.4 467.638 11.5C467.638 10.5667 467.855 9.83333 468.288 9.3C468.755 8.73333 469.305 8.45 469.938 8.45C470.571 8.45 471.088 8.71667 471.488 9.25C471.888 9.75 472.088 10.5833 472.088 11.75C472.088 12.9167 472.038 14.2 471.938 15.6L477.988 15.2C479.288 15.2 479.938 15.8167 479.938 17.05C479.938 18.2833 479.288 18.9 477.988 18.9ZM485.193 21.35C483.727 22.8167 482.993 24.6167 482.993 26.75C482.993 28.8833 483.727 30.7 485.193 32.2C486.693 33.6667 488.493 34.4 490.593 34.4C492.727 34.4 494.51 33.6667 495.943 32.2C497.377 30.7 498.093 28.8833 498.093 26.75C498.093 24.6167 497.377 22.8167 495.943 21.35C494.51 19.8833 492.727 19.15 490.593 19.15C488.493 19.15 486.693 19.8833 485.193 21.35ZM487.193 38.3C485.06 38.3 483.277 37.4667 481.843 35.8C480.41 34.1333 479.693 32.05 479.693 29.55C479.693 27.0167 480.477 24.5833 482.043 22.25C483.61 19.8833 485.443 18.1167 487.543 16.95C489.643 15.7833 491.76 15.2 493.893 15.2C496.027 15.2 497.81 16.0333 499.243 17.7C500.677 19.3667 501.393 21.4667 501.393 24C501.393 26.5 500.61 28.9333 499.043 31.3C497.477 33.6333 495.643 35.3833 493.543 36.55C491.443 37.7167 489.327 38.3 487.193 38.3ZM509.412 38.3C508.179 38.3 507.179 38.05 506.412 37.55C505.645 37.05 505.262 36.4333 505.262 35.7C505.262 34.9333 505.479 34.3333 505.912 33.9C506.379 33.4333 506.829 33.2 507.262 33.2C507.729 33.2 508.479 33.4 509.512 33.8C510.545 34.2 511.612 34.4 512.712 34.4C513.845 34.4 514.979 34.1167 516.112 33.55C517.245 32.95 517.812 32.2333 517.812 31.4C517.812 30.5333 517.379 29.8667 516.512 29.4C515.679 28.9333 514.662 28.5667 513.462 28.3C512.262 28 511.062 27.6667 509.862 27.3C508.662 26.9333 507.629 26.3833 506.762 25.65C505.929 24.8833 505.512 23.95 505.512 22.85C505.512 21.05 506.662 19.3333 508.962 17.7C511.262 16.0333 513.795 15.2 516.562 15.2C517.895 15.2 518.912 15.45 519.612 15.95C520.345 16.4167 520.712 17.0333 520.712 17.8C520.712 18.5667 520.479 19.1833 520.012 19.65C519.579 20.0833 519.129 20.3 518.662 20.3C518.229 20.3 517.495 20.1 516.462 19.7C515.429 19.3 514.345 19.1 513.212 19.1C512.112 19.1 511.145 19.3333 510.312 19.8C509.512 20.2667 509.112 20.8333 509.112 21.5C509.112 22.1667 509.745 22.75 511.012 23.25C512.312 23.75 513.729 24.15 515.262 24.45C516.795 24.75 518.195 25.35 519.462 26.25C520.762 27.1167 521.412 28.25 521.412 29.65C521.412 31.8167 520.145 33.8 517.612 35.6C515.079 37.4 512.345 38.3 509.412 38.3Z" fill="#1E1E1E"/>
</svg>
