<svg width="250" height="53" viewBox="0 0 250 53" fill="none" xmlns="http://www.w3.org/2000/svg">
<path d="M25.85 13.8C25.85 9.53333 24.1 7.4 20.6 7.4C19.1667 7.4 17.95 7.73333 16.95 8.4C15.95 9.06667 15.45 10.0167 15.45 11.25C15.45 12.0167 15.65 12.5667 16.05 12.9C16.4833 13.2 17.0833 13.45 17.85 13.65C18.6167 13.8167 19.15 13.9667 19.45 14.1C19.75 14.2 20.0167 14.4167 20.25 14.75C20.5167 15.0833 20.65 15.5667 20.65 16.2C20.65 16.8333 20.4 17.3667 19.9 17.8C19.4 18.2 18.7833 18.4 18.05 18.4C16.75 18.4 15.5333 17.8333 14.4 16.7C13.2667 15.5667 12.7 14.2167 12.7 12.65C12.7 10.5167 13.6167 8.41667 15.45 6.35C17.3167 4.25 19.5333 3.2 22.1 3.2C24.6667 3.2 26.6167 3.98333 27.95 5.55C29.3167 7.11666 30 9.18333 30 11.75C30 15.75 28.4667 20.4333 25.4 25.8C22.3667 31.1667 19.2833 35.0667 16.15 37.5C15.45 38.0333 14.85 38.3 14.35 38.3C13.25 38.3 12.45 37.65 11.95 36.35L6.35 21.65C5.68333 19.95 4.96667 18.1833 4.2 16.35C3.43333 14.4833 2.86667 13.1 2.5 12.2C2.13333 11.3 1.76667 10.3833 1.4 9.45C0.8 7.81667 0.5 6.63333 0.5 5.9C0.5 5.13333 0.683333 4.5 1.05 4C1.41667 3.46667 1.93333 3.2 2.6 3.2C3.76667 3.2 4.63333 3.88333 5.2 5.25C5.3 5.51667 5.56667 6.33333 6 7.7C9.96667 19.5 13.2667 28.2 15.9 33.8C18.4333 31.5667 20.7167 28.5667 22.75 24.8C24.8167 21 25.85 17.3333 25.85 13.8ZM40.9293 28.05L34.9793 27.55C34.4126 27.55 33.9626 27.6 33.6293 27.7C33.8293 29.6 34.6293 31.1833 36.0293 32.45C37.4626 33.7167 39.146 34.35 41.0793 34.35C42.946 34.35 44.6293 33.6667 46.1293 32.3C46.6626 31.8333 47.0626 31.6 47.3293 31.6C47.596 31.6 47.8293 31.7 48.0293 31.9C48.2293 32.1 48.3293 32.3167 48.3293 32.55C48.3293 33.5167 47.3793 34.7167 45.4793 36.15C43.6126 37.5833 41.4793 38.3 39.0793 38.3C36.7126 38.3 34.646 37.3333 32.8793 35.4C31.146 33.4667 30.2793 31.0667 30.2793 28.2C30.2793 24.5333 31.6626 21.45 34.4293 18.95C37.196 16.45 40.246 15.2 43.5793 15.2C44.9793 15.2 46.1126 15.45 46.9793 15.95C47.8793 16.4167 48.3293 17.0333 48.3293 17.8C48.3293 18.5333 48.096 19.1333 47.6293 19.6C47.196 20.0667 46.7626 20.3 46.3293 20.3C45.896 20.3 45.146 20.1 44.0793 19.7C43.046 19.3 42.046 19.1 41.0793 19.1C39.2793 19.1 37.7126 19.65 36.3793 20.75C35.0793 21.8167 34.2126 23.15 33.7793 24.75L40.6793 24.35C42.2126 24.35 42.9793 24.95 42.9793 26.15C42.9793 27.4167 42.296 28.05 40.9293 28.05ZM56.9918 26.25L57.3918 35.3C57.3918 36.2 57.1585 36.9333 56.6918 37.5C56.2585 38.0333 55.7251 38.3 55.0918 38.3C54.4585 38.3 53.9418 38.05 53.5418 37.55C53.1418 37.0167 52.9418 36.3 52.9418 35.4C52.9418 34.5 53.0251 33.2167 53.1918 31.55C53.5251 28.2167 53.6918 25.4 53.6918 23.1C53.6918 22.1 53.3751 21.15 52.7418 20.25C52.1418 19.3167 51.8418 18.4833 51.8418 17.75C51.8418 17.0167 52.0918 16.4167 52.5918 15.95C53.0918 15.45 53.6585 15.2 54.2918 15.2C55.9585 15.2 56.7918 16.5167 56.7918 19.15V21.1C57.7918 19.3 58.9918 17.8667 60.3918 16.8C61.7918 15.7333 63.0751 15.2 64.2418 15.2C65.4085 15.2 66.2918 15.5 66.8918 16.1C67.5251 16.6667 67.8418 17.4333 67.8418 18.4C67.8418 19.3667 67.6085 20.1833 67.1418 20.85C66.6751 21.4833 66.1751 21.8 65.6418 21.8C65.1085 21.8 64.6918 21.6667 64.3918 21.4C64.1251 21.1 63.9251 20.8 63.7918 20.5C63.6585 20.1667 63.4085 19.8667 63.0418 19.6C62.6751 19.3 62.2085 19.15 61.6418 19.15C60.6751 19.15 59.7085 19.7833 58.7418 21.05C57.7751 22.3167 57.1918 24.05 56.9918 26.25ZM74.9742 21.35C76.0742 21.45 77.2742 21.5 78.5742 21.5C79.8742 21.5 81.0576 21.45 82.1242 21.35C83.2242 21.25 83.9409 21.2 84.2742 21.2C84.6409 21.2 84.9909 21.3667 85.3242 21.7C85.6576 22.0333 85.8242 22.4667 85.8242 23C85.8242 23.5333 85.6576 23.9833 85.3242 24.35C84.9909 24.6833 84.6409 24.85 84.2742 24.85C83.9409 24.85 83.2242 24.8167 82.1242 24.75C81.0576 24.65 79.8742 24.6 78.5742 24.6C77.2742 24.6 76.0742 24.65 74.9742 24.75C73.9076 24.8167 73.1909 24.85 72.8242 24.85C72.4909 24.85 72.1576 24.6833 71.8242 24.35C71.4909 23.9833 71.3242 23.5333 71.3242 23C71.3242 22.4667 71.4909 22.0333 71.8242 21.7C72.1576 21.3667 72.4909 21.2 72.8242 21.2C73.1909 21.2 73.9076 21.25 74.9742 21.35ZM95.0566 21.35C93.59 22.8167 92.8566 24.6167 92.8566 26.75C92.8566 28.8833 93.59 30.7 95.0566 32.2C96.5566 33.6667 98.3566 34.4 100.457 34.4C102.59 34.4 104.373 33.6667 105.807 32.2C107.24 30.7 107.957 28.8833 107.957 26.75C107.957 24.6167 107.24 22.8167 105.807 21.35C104.373 19.8833 102.59 19.15 100.457 19.15C98.3566 19.15 96.5566 19.8833 95.0566 21.35ZM97.0566 38.3C94.9233 38.3 93.14 37.4667 91.7066 35.8C90.2733 34.1333 89.5566 32.05 89.5566 29.55C89.5566 27.0167 90.34 24.5833 91.9066 22.25C93.4733 19.8833 95.3066 18.1167 97.4066 16.95C99.5066 15.7833 101.623 15.2 103.757 15.2C105.89 15.2 107.673 16.0333 109.107 17.7C110.54 19.3667 111.257 21.4667 111.257 24C111.257 26.5 110.473 28.9333 108.907 31.3C107.34 33.6333 105.507 35.3833 103.407 36.55C101.307 37.7167 99.19 38.3 97.0566 38.3ZM118.675 21.35C119.775 21.45 120.975 21.5 122.275 21.5C123.575 21.5 124.759 21.45 125.825 21.35C126.925 21.25 127.642 21.2 127.975 21.2C128.342 21.2 128.692 21.3667 129.025 21.7C129.359 22.0333 129.525 22.4667 129.525 23C129.525 23.5333 129.359 23.9833 129.025 24.35C128.692 24.6833 128.342 24.85 127.975 24.85C127.642 24.85 126.925 24.8167 125.825 24.75C124.759 24.65 123.575 24.6 122.275 24.6C120.975 24.6 119.775 24.65 118.675 24.75C117.609 24.8167 116.892 24.85 116.525 24.85C116.192 24.85 115.859 24.6833 115.525 24.35C115.192 23.9833 115.025 23.5333 115.025 23C115.025 22.4667 115.192 22.0333 115.525 21.7C115.859 21.3667 116.192 21.2 116.525 21.2C116.892 21.2 117.609 21.25 118.675 21.35ZM151.758 9.65C149.858 7.35 147.908 6.2 145.908 6.2C144.341 6.2 143.024 6.73333 141.958 7.8C140.891 8.86667 140.358 10.1333 140.358 11.6C140.358 13.0667 140.774 14.2833 141.608 15.25C142.474 16.2167 143.541 17.0167 144.808 17.65C146.074 18.2833 147.441 19.0333 148.908 19.9C150.374 20.7333 151.741 21.6167 153.008 22.55C154.274 23.45 155.324 24.7 156.158 26.3C157.024 27.8667 157.458 29.8 157.458 32.1C157.458 34.4 157.008 36.6833 156.108 38.95C155.208 41.2167 154.024 43.1667 152.558 44.8C151.091 46.4333 149.408 47.8333 147.508 49C143.708 51.3333 139.758 52.5 135.658 52.5C132.891 52.5 130.491 51.8167 128.458 50.45C126.391 49.0833 125.358 47.5333 125.358 45.8C125.358 44.0667 126.174 43.2 127.808 43.2C128.441 43.2 129.724 44.0833 131.658 45.85C132.391 46.5167 133.391 47.1167 134.658 47.65C135.958 48.2167 137.391 48.5 138.958 48.5C140.558 48.5 142.224 48.2 143.958 47.6C145.691 47 147.308 46.1333 148.808 45C150.341 43.9 151.574 42.4167 152.508 40.55C153.441 38.7167 153.908 36.6667 153.908 34.4C153.908 32.1 153.308 30.15 152.108 28.55C150.908 26.95 149.458 25.7 147.758 24.8C146.058 23.9 144.358 23.0333 142.658 22.2C140.958 21.3333 139.508 20.2333 138.308 18.9C137.108 17.5667 136.508 15.95 136.508 14.05C136.508 12.1167 136.924 10.4 137.758 8.9C138.624 7.4 139.708 6.26666 141.008 5.5C143.474 3.96666 145.924 3.2 148.358 3.2C150.791 3.2 152.774 3.76666 154.308 4.9C155.841 6.03333 156.608 7.33333 156.608 8.8C156.608 9.66666 156.391 10.3333 155.958 10.8C155.524 11.2333 155.024 11.45 154.458 11.45C153.891 11.45 153.408 11.3 153.008 11C152.641 10.6667 152.224 10.2167 151.758 9.65ZM177.231 31.3C177.464 31.9 177.948 32.7167 178.681 33.75C179.448 34.75 179.831 35.5667 179.831 36.2C179.831 36.8333 179.664 37.35 179.331 37.75C178.998 38.1167 178.548 38.3 177.981 38.3C176.614 38.3 175.398 36.8833 174.331 34.05L173.931 32.95C172.231 36.5167 169.681 38.3 166.281 38.3C164.581 38.3 163.164 37.7667 162.031 36.7C160.931 35.6 160.381 34.2333 160.381 32.6C160.381 30.0667 161.248 27.8833 162.981 26.05C164.714 24.2167 166.981 23.2333 169.781 23.1C169.114 21.9333 168.364 21.0667 167.531 20.5C166.731 19.9 165.998 19.55 165.331 19.45C164.664 19.35 164.031 19.3 163.431 19.3C162.864 19.2667 162.414 19.1333 162.081 18.9C161.748 18.6667 161.581 18.2167 161.581 17.55C161.581 16.85 161.848 16.2833 162.381 15.85C162.948 15.4167 163.614 15.2 164.381 15.2C166.548 15.2 168.681 16.2833 170.781 18.45C172.881 20.6167 174.714 24.0167 176.281 28.65L177.231 31.3ZM168.531 25.75C167.331 25.75 166.248 26.15 165.281 26.95C164.348 27.75 163.881 28.7833 163.881 30.05C163.881 31.3167 164.298 32.3833 165.131 33.25C165.998 34.0833 167.031 34.5 168.231 34.5C169.431 34.5 170.464 34.0833 171.331 33.25C172.198 32.3833 172.631 31.3667 172.631 30.2C172.631 29.3667 172.481 28.6 172.181 27.9C171.881 27.1667 171.698 26.7167 171.631 26.55C170.764 26.0167 169.731 25.75 168.531 25.75ZM184.23 30C184.23 30 184.363 26.95 184.63 20.85C184.63 15.4167 184.497 11.1667 184.23 8.1C183.963 5.03333 183.83 3.45 183.83 3.35C183.83 1.45 184.563 0.499997 186.03 0.499997C187.797 0.499997 188.68 1.86666 188.68 4.6C188.68 6.23333 188.497 9.01667 188.13 12.95C187.797 16.8833 187.613 19.5 187.58 20.8C188.98 19.0667 190.647 17.7 192.58 16.7C194.547 15.7 196.513 15.2 198.48 15.2C200.48 15.2 202.213 16.0167 203.68 17.65C205.18 19.25 205.93 21.2 205.93 23.5C205.93 27.2 204.513 30.6 201.68 33.7C198.847 36.7667 195.63 38.3 192.03 38.3C189.797 38.3 187.93 37.5 186.43 35.9C184.963 34.2667 184.23 32.3 184.23 30ZM189.68 21.35C188.213 22.8167 187.48 24.6167 187.48 26.75C187.48 28.8833 188.213 30.7 189.68 32.2C191.18 33.6667 192.98 34.4 195.08 34.4C197.213 34.4 198.997 33.6667 200.43 32.2C201.863 30.7 202.58 28.8833 202.58 26.75C202.58 24.6167 201.863 22.8167 200.43 21.35C198.997 19.8833 197.213 19.15 195.08 19.15C192.98 19.15 191.18 19.8833 189.68 21.35ZM213.953 21.35C212.486 22.8167 211.753 24.6167 211.753 26.75C211.753 28.8833 212.486 30.7 213.953 32.2C215.453 33.6667 217.253 34.4 219.353 34.4C221.486 34.4 223.27 33.6667 224.703 32.2C226.136 30.7 226.853 28.8833 226.853 26.75C226.853 24.6167 226.136 22.8167 224.703 21.35C223.27 19.8833 221.486 19.15 219.353 19.15C217.253 19.15 215.453 19.8833 213.953 21.35ZM215.953 38.3C213.82 38.3 212.036 37.4667 210.603 35.8C209.17 34.1333 208.453 32.05 208.453 29.55C208.453 27.0167 209.236 24.5833 210.803 22.25C212.37 19.8833 214.203 18.1167 216.303 16.95C218.403 15.7833 220.52 15.2 222.653 15.2C224.786 15.2 226.57 16.0333 228.003 17.7C229.436 19.3667 230.153 21.4667 230.153 24C230.153 26.5 229.37 28.9333 227.803 31.3C226.236 33.6333 224.403 35.3833 222.303 36.55C220.203 37.7167 218.086 38.3 215.953 38.3ZM239.072 26.25L239.472 35.3C239.472 36.2 239.239 36.9333 238.772 37.5C238.339 38.0333 237.805 38.3 237.172 38.3C236.539 38.3 236.022 38.05 235.622 37.55C235.222 37.0167 235.022 36.3 235.022 35.4C235.022 34.5 235.105 33.2167 235.272 31.55C235.605 28.2167 235.772 25.4 235.772 23.1C235.772 22.1 235.455 21.15 234.822 20.25C234.222 19.3167 233.922 18.4833 233.922 17.75C233.922 17.0167 234.172 16.4167 234.672 15.95C235.172 15.45 235.739 15.2 236.372 15.2C238.039 15.2 238.872 16.5167 238.872 19.15V21.1C239.872 19.3 241.072 17.8667 242.472 16.8C243.872 15.7333 245.155 15.2 246.322 15.2C247.489 15.2 248.372 15.5 248.972 16.1C249.605 16.6667 249.922 17.4333 249.922 18.4C249.922 19.3667 249.689 20.1833 249.222 20.85C248.755 21.4833 248.255 21.8 247.722 21.8C247.189 21.8 246.772 21.6667 246.472 21.4C246.205 21.1 246.005 20.8 245.872 20.5C245.739 20.1667 245.489 19.8667 245.122 19.6C244.755 19.3 244.289 19.15 243.722 19.15C242.755 19.15 241.789 19.7833 240.822 21.05C239.855 22.3167 239.272 24.05 239.072 26.25Z" fill="#202020"/>
</svg>
