<svg width="346" height="53" viewBox="0 0 346 53" fill="none" xmlns="http://www.w3.org/2000/svg">
<path d="M6.5 7.9C6.4 10.1 6.35 13.6 6.35 18.4C6.35 23.2 6.5 27.1833 6.8 30.35C7.13333 33.5167 7.3 35.3667 7.3 35.9C7.3 36.4333 7.06667 36.9667 6.6 37.5C6.16667 38.0333 5.6 38.3 4.9 38.3C4.2 38.3 3.61667 38.0333 3.15 37.5C2.71667 36.9667 2.5 36.4333 2.5 35.9C2.5 35.3667 2.65 33.5167 2.95 30.35C3.28333 27.1833 3.45 24.0667 3.45 21C3.45 17.9333 3.38333 13.4667 3.25 7.6C2.58333 7.56667 2 7.38333 1.5 7.05C1 6.68333 0.75 6.18333 0.75 5.55C0.75 3.98333 1.8 3.2 3.9 3.2C5.6 3.2 7.36667 3.63333 9.2 4.5C11.0667 5.36666 13.0667 6.95 15.2 9.25C17.3667 11.55 19.2167 14.4167 20.75 17.85C21.25 18.95 22.2167 21.1667 23.65 24.5C25.0833 27.8333 26.1667 30.2333 26.9 31.7C26.8333 21.9667 26.55 15.3333 26.05 11.8C25.8833 10.6333 25.7167 9.56667 25.55 8.6C25.4167 7.63333 25.35 6.76666 25.35 6C25.35 5.2 25.5833 4.53333 26.05 4C26.55 3.46667 27.1333 3.2 27.8 3.2C28.5 3.2 29.0667 3.46667 29.5 4C29.9333 4.53333 30.15 5.33333 30.15 6.4C30.15 7.43333 30.0667 9.35 29.9 12.15C29.5667 18.6833 29.4 26.55 29.4 35.75C32.1 40.0167 34.35 42.9167 36.15 44.45C37.15 45.3167 38.1833 46.0333 39.25 46.6C40.35 47.2 41.1833 47.6 41.75 47.8C43.05 48.2667 43.7 49.15 43.7 50.45C43.7 50.9833 43.45 51.4667 42.95 51.9C42.45 52.3333 41.8167 52.55 41.05 52.55C39.2167 52.55 37.2667 51.6333 35.2 49.8C33.1333 47.9667 31.1 45.4667 29.1 42.3C25.3667 36.3 21.75 28.8833 18.25 20.05C15.4833 12.9833 11.5667 8.93333 6.5 7.9ZM41.3223 21.35C39.8556 22.8167 39.1223 24.6167 39.1223 26.75C39.1223 28.8833 39.8556 30.7 41.3223 32.2C42.8223 33.6667 44.6223 34.4 46.7223 34.4C48.8556 34.4 50.6389 33.6667 52.0723 32.2C53.5056 30.7 54.2223 28.8833 54.2223 26.75C54.2223 24.6167 53.5056 22.8167 52.0723 21.35C50.6389 19.8833 48.8556 19.15 46.7223 19.15C44.6223 19.15 42.8223 19.8833 41.3223 21.35ZM43.3223 38.3C41.1889 38.3 39.4056 37.4667 37.9723 35.8C36.5389 34.1333 35.8223 32.05 35.8223 29.55C35.8223 27.0167 36.6056 24.5833 38.1723 22.25C39.7389 19.8833 41.5723 18.1167 43.6723 16.95C45.7723 15.7833 47.8889 15.2 50.0223 15.2C52.1556 15.2 53.9389 16.0333 55.3723 17.7C56.8056 19.3667 57.5223 21.4667 57.5223 24C57.5223 26.5 56.7389 28.9333 55.1723 31.3C53.6056 33.6333 51.7723 35.3833 49.6723 36.55C47.5723 37.7167 45.4556 38.3 43.3223 38.3ZM65.541 38.3C64.3077 38.3 63.3077 38.05 62.541 37.55C61.7743 37.05 61.391 36.4333 61.391 35.7C61.391 34.9333 61.6077 34.3333 62.041 33.9C62.5077 33.4333 62.9577 33.2 63.391 33.2C63.8577 33.2 64.6077 33.4 65.641 33.8C66.6743 34.2 67.741 34.4 68.841 34.4C69.9743 34.4 71.1077 34.1167 72.241 33.55C73.3743 32.95 73.941 32.2333 73.941 31.4C73.941 30.5333 73.5077 29.8667 72.641 29.4C71.8077 28.9333 70.791 28.5667 69.591 28.3C68.391 28 67.191 27.6667 65.991 27.3C64.791 26.9333 63.7577 26.3833 62.891 25.65C62.0577 24.8833 61.641 23.95 61.641 22.85C61.641 21.05 62.791 19.3333 65.091 17.7C67.391 16.0333 69.9243 15.2 72.691 15.2C74.0244 15.2 75.041 15.45 75.741 15.95C76.4744 16.4167 76.841 17.0333 76.841 17.8C76.841 18.5667 76.6077 19.1833 76.141 19.65C75.7077 20.0833 75.2577 20.3 74.791 20.3C74.3577 20.3 73.6243 20.1 72.591 19.7C71.5577 19.3 70.4743 19.1 69.341 19.1C68.241 19.1 67.2743 19.3333 66.441 19.8C65.641 20.2667 65.241 20.8333 65.241 21.5C65.241 22.1667 65.8743 22.75 67.141 23.25C68.441 23.75 69.8577 24.15 71.391 24.45C72.9243 24.75 74.3243 25.35 75.591 26.25C76.891 27.1167 77.541 28.25 77.541 29.65C77.541 31.8167 76.2744 33.8 73.741 35.6C71.2077 37.4 68.4743 38.3 65.541 38.3ZM86.8789 38.3C85.6456 38.3 84.6456 38.05 83.8789 37.55C83.1122 37.05 82.7289 36.4333 82.7289 35.7C82.7289 34.9333 82.9456 34.3333 83.3789 33.9C83.8456 33.4333 84.2956 33.2 84.7289 33.2C85.1956 33.2 85.9456 33.4 86.9789 33.8C88.0122 34.2 89.0789 34.4 90.1789 34.4C91.3122 34.4 92.4456 34.1167 93.5789 33.55C94.7122 32.95 95.2789 32.2333 95.2789 31.4C95.2789 30.5333 94.8456 29.8667 93.9789 29.4C93.1456 28.9333 92.1289 28.5667 90.9289 28.3C89.7289 28 88.5289 27.6667 87.3289 27.3C86.1289 26.9333 85.0956 26.3833 84.2289 25.65C83.3956 24.8833 82.9789 23.95 82.9789 22.85C82.9789 21.05 84.1289 19.3333 86.4289 17.7C88.7289 16.0333 91.2622 15.2 94.0289 15.2C95.3622 15.2 96.3789 15.45 97.0789 15.95C97.8122 16.4167 98.1789 17.0333 98.1789 17.8C98.1789 18.5667 97.9456 19.1833 97.4789 19.65C97.0456 20.0833 96.5956 20.3 96.1289 20.3C95.6956 20.3 94.9622 20.1 93.9289 19.7C92.8956 19.3 91.8122 19.1 90.6789 19.1C89.5789 19.1 88.6122 19.3333 87.7789 19.8C86.9789 20.2667 86.5789 20.8333 86.5789 21.5C86.5789 22.1667 87.2122 22.75 88.4789 23.25C89.7789 23.75 91.1956 24.15 92.7289 24.45C94.2622 24.75 95.6622 25.35 96.9289 26.25C98.2289 27.1167 98.8789 28.25 98.8789 29.65C98.8789 31.8167 97.6122 33.8 95.0789 35.6C92.5456 37.4 89.8122 38.3 86.8789 38.3ZM108.217 21.35C106.75 22.8167 106.017 24.6167 106.017 26.75C106.017 28.8833 106.75 30.7 108.217 32.2C109.717 33.6667 111.517 34.4 113.617 34.4C115.75 34.4 117.533 33.6667 118.967 32.2C120.4 30.7 121.117 28.8833 121.117 26.75C121.117 24.6167 120.4 22.8167 118.967 21.35C117.533 19.8833 115.75 19.15 113.617 19.15C111.517 19.15 109.717 19.8833 108.217 21.35ZM110.217 38.3C108.083 38.3 106.3 37.4667 104.867 35.8C103.433 34.1333 102.717 32.05 102.717 29.55C102.717 27.0167 103.5 24.5833 105.067 22.25C106.633 19.8833 108.467 18.1167 110.567 16.95C112.667 15.7833 114.783 15.2 116.917 15.2C119.05 15.2 120.833 16.0333 122.267 17.7C123.7 19.3667 124.417 21.4667 124.417 24C124.417 26.5 123.633 28.9333 122.067 31.3C120.5 33.6333 118.667 35.3833 116.567 36.55C114.467 37.7167 112.35 38.3 110.217 38.3ZM132.436 38.3C131.202 38.3 130.202 38.05 129.436 37.55C128.669 37.05 128.286 36.4333 128.286 35.7C128.286 34.9333 128.502 34.3333 128.936 33.9C129.402 33.4333 129.852 33.2 130.286 33.2C130.752 33.2 131.502 33.4 132.536 33.8C133.569 34.2 134.636 34.4 135.736 34.4C136.869 34.4 138.002 34.1167 139.136 33.55C140.269 32.95 140.836 32.2333 140.836 31.4C140.836 30.5333 140.402 29.8667 139.536 29.4C138.702 28.9333 137.686 28.5667 136.486 28.3C135.286 28 134.086 27.6667 132.886 27.3C131.686 26.9333 130.652 26.3833 129.786 25.65C128.952 24.8833 128.536 23.95 128.536 22.85C128.536 21.05 129.686 19.3333 131.986 17.7C134.286 16.0333 136.819 15.2 139.586 15.2C140.919 15.2 141.936 15.45 142.636 15.95C143.369 16.4167 143.736 17.0333 143.736 17.8C143.736 18.5667 143.502 19.1833 143.036 19.65C142.602 20.0833 142.152 20.3 141.686 20.3C141.252 20.3 140.519 20.1 139.486 19.7C138.452 19.3 137.369 19.1 136.236 19.1C135.136 19.1 134.169 19.3333 133.336 19.8C132.536 20.2667 132.136 20.8333 132.136 21.5C132.136 22.1667 132.769 22.75 134.036 23.25C135.336 23.75 136.752 24.15 138.286 24.45C139.819 24.75 141.219 25.35 142.486 26.25C143.786 27.1167 144.436 28.25 144.436 29.65C144.436 31.8167 143.169 33.8 140.636 35.6C138.102 37.4 135.369 38.3 132.436 38.3ZM181.914 3.2C184.914 3.2 187.264 4.05 188.964 5.75C190.664 7.41667 191.514 9.9 191.514 13.2C191.514 16.4667 190.33 19.4667 187.964 22.2C185.597 24.9333 182.614 26.3 179.014 26.3C176.947 26.3 175.614 26.0333 175.014 25.5C174.58 25.0667 174.364 24.55 174.364 23.95C174.364 23.3167 174.564 22.8333 174.964 22.5C175.364 22.1333 175.814 21.95 176.314 21.95C176.847 21.95 177.547 22.1167 178.414 22.45C179.314 22.7833 180.197 22.95 181.064 22.95C182.93 22.95 184.547 22.2 185.914 20.7C187.314 19.1667 188.014 17.2833 188.014 15.05C188.014 12.7833 187.264 10.8167 185.764 9.15C184.297 7.48333 182.38 6.65 180.014 6.65C177.647 6.65 175.447 7.28333 173.414 8.55C173.014 18.75 172.814 31.9667 172.814 48.2C172.814 51.1 171.897 52.55 170.064 52.55C169.364 52.55 168.73 52.2833 168.164 51.75C167.63 51.2167 167.364 50.5333 167.364 49.7C167.364 48.9 167.714 48 168.414 47C169.147 46 169.514 44.95 169.514 43.85C169.514 33.0833 169.464 26.0333 169.364 22.7C169.197 17.1333 169.114 13.6333 169.114 12.2C168.18 13.3 167.43 14.4333 166.864 15.6C166.297 16.7667 165.68 17.35 165.014 17.35C164.114 17.35 163.664 16.8833 163.664 15.95C163.664 15.0167 164.18 13.8667 165.214 12.5C166.247 11.1 167.564 9.71666 169.164 8.35C170.797 6.95 172.764 5.75 175.064 4.75C177.397 3.71666 179.68 3.2 181.914 3.2ZM200.377 26.25L200.777 35.3C200.777 36.2 200.543 36.9333 200.077 37.5C199.643 38.0333 199.11 38.3 198.477 38.3C197.843 38.3 197.327 38.05 196.927 37.55C196.527 37.0167 196.327 36.3 196.327 35.4C196.327 34.5 196.41 33.2167 196.577 31.55C196.91 28.2167 197.077 25.4 197.077 23.1C197.077 22.1 196.76 21.15 196.127 20.25C195.527 19.3167 195.227 18.4833 195.227 17.75C195.227 17.0167 195.477 16.4167 195.977 15.95C196.477 15.45 197.043 15.2 197.677 15.2C199.343 15.2 200.177 16.5167 200.177 19.15V21.1C201.177 19.3 202.377 17.8667 203.777 16.8C205.177 15.7333 206.46 15.2 207.627 15.2C208.793 15.2 209.677 15.5 210.277 16.1C210.91 16.6667 211.227 17.4333 211.227 18.4C211.227 19.3667 210.993 20.1833 210.527 20.85C210.06 21.4833 209.56 21.8 209.027 21.8C208.493 21.8 208.077 21.6667 207.777 21.4C207.51 21.1 207.31 20.8 207.177 20.5C207.043 20.1667 206.793 19.8667 206.427 19.6C206.06 19.3 205.593 19.15 205.027 19.15C204.06 19.15 203.093 19.7833 202.127 21.05C201.16 22.3167 200.577 24.05 200.377 26.25ZM218.959 21.35C217.492 22.8167 216.759 24.6167 216.759 26.75C216.759 28.8833 217.492 30.7 218.959 32.2C220.459 33.6667 222.259 34.4 224.359 34.4C226.492 34.4 228.276 33.6667 229.709 32.2C231.142 30.7 231.859 28.8833 231.859 26.75C231.859 24.6167 231.142 22.8167 229.709 21.35C228.276 19.8833 226.492 19.15 224.359 19.15C222.259 19.15 220.459 19.8833 218.959 21.35ZM220.959 38.3C218.826 38.3 217.042 37.4667 215.609 35.8C214.176 34.1333 213.459 32.05 213.459 29.55C213.459 27.0167 214.242 24.5833 215.809 22.25C217.376 19.8833 219.209 18.1167 221.309 16.95C223.409 15.7833 225.526 15.2 227.659 15.2C229.792 15.2 231.576 16.0333 233.009 17.7C234.442 19.3667 235.159 21.4667 235.159 24C235.159 26.5 234.376 28.9333 232.809 31.3C231.242 33.6333 229.409 35.3833 227.309 36.55C225.209 37.7167 223.092 38.3 220.959 38.3ZM245.128 38.3C243.028 38.3 241.261 37.4667 239.828 35.8C238.394 34.1333 237.678 32.2167 237.678 30.05C237.678 27.85 238.111 25.8 238.978 23.9C239.844 22 240.944 20.4333 242.278 19.2C243.611 17.9667 245.044 17 246.578 16.3C248.144 15.5667 249.744 15.2 251.378 15.2C253.044 15.2 254.578 15.8167 255.978 17.05C255.944 14.55 255.828 11.8167 255.628 8.85C255.428 5.85 255.328 3.96666 255.328 3.2C255.328 2.43333 255.528 1.8 255.928 1.3C256.328 0.766664 256.844 0.499997 257.478 0.499997C258.111 0.499997 258.644 0.783331 259.078 1.35C259.544 1.88333 259.778 2.61667 259.778 3.55C259.778 4.45 259.628 6.58333 259.328 9.95C259.061 13.2833 258.928 16.4167 258.928 19.35C258.928 22.2833 259.044 24.8333 259.278 27C259.511 29.1333 259.761 30.5833 260.028 31.35C260.794 33.3833 261.178 34.75 261.178 35.45C261.178 37.35 260.444 38.3 258.978 38.3C257.211 38.3 256.178 36.4167 255.878 32.65C254.544 34.4167 252.944 35.8 251.078 36.8C249.211 37.8 247.228 38.3 245.128 38.3ZM243.178 21.35C241.711 22.8167 240.978 24.6167 240.978 26.75C240.978 28.8833 241.711 30.7 243.178 32.2C244.678 33.6667 246.478 34.4 248.578 34.4C250.711 34.4 252.494 33.6667 253.928 32.2C255.361 30.7 256.078 28.8167 256.078 26.55C256.078 24.2833 255.428 22.4833 254.128 21.15C252.828 19.8167 251.044 19.15 248.778 19.15C246.544 19.15 244.678 19.8833 243.178 21.35ZM281.124 29.45L280.624 18.2C280.624 17.3 280.84 16.5833 281.274 16.05C281.74 15.4833 282.29 15.2 282.924 15.2C283.557 15.2 284.074 15.4667 284.474 16C284.874 16.5 285.074 17.2 285.074 18.1C285.074 18.9667 284.974 20.2 284.774 21.8C284.374 25 284.174 27.8667 284.174 30.4C284.174 31.4 284.49 32.3667 285.124 33.3C285.79 34.2 286.124 35.0167 286.124 35.75C286.124 36.4833 285.874 37.1 285.374 37.6C284.874 38.0667 284.307 38.3 283.674 38.3C282.007 38.3 281.174 36.9833 281.174 34.35C279.607 36.9833 277.64 38.3 275.274 38.3C273.374 38.3 271.857 37.6167 270.724 36.25C269.624 34.8833 268.857 33.2167 268.424 31.25L266.524 22.65C266.324 21.6833 265.874 20.8333 265.174 20.1C264.507 19.3333 264.174 18.5667 264.174 17.8C264.174 17.0333 264.44 16.4167 264.974 15.95C265.507 15.45 266.14 15.2 266.874 15.2C268.54 15.2 269.624 16.5167 270.124 19.15L272.024 29.6C272.657 32.9333 274.24 34.6 276.774 34.6C278.007 34.6 279.024 34.1167 279.824 33.15C280.624 32.15 281.057 30.9167 281.124 29.45ZM302.525 18.9C302.358 18.9 300.275 18.7667 296.275 18.5C296.275 18.9333 296.208 20.5833 296.075 23.45C295.942 26.3167 295.875 28.45 295.875 29.85C295.875 31.2167 296.175 32.3667 296.775 33.3C297.408 34.2 297.725 35.0167 297.725 35.75C297.725 36.4833 297.475 37.1 296.975 37.6C296.475 38.0667 295.908 38.3 295.275 38.3C293.608 38.3 292.775 36.9833 292.775 34.35L292.575 24.2C292.575 22.1333 292.525 20.2833 292.425 18.65H291.225C290.758 18.65 290.375 18.5167 290.075 18.25C289.775 17.95 289.625 17.55 289.625 17.05C289.625 16.55 289.775 16.1667 290.075 15.9C290.375 15.6 290.758 15.45 291.225 15.45H292.275C292.208 13.7167 292.175 12.4 292.175 11.5C292.175 10.5667 292.392 9.83333 292.825 9.3C293.292 8.73333 293.842 8.45 294.475 8.45C295.108 8.45 295.625 8.71667 296.025 9.25C296.425 9.75 296.625 10.5833 296.625 11.75C296.625 12.9167 296.575 14.2 296.475 15.6L302.525 15.2C303.825 15.2 304.475 15.8167 304.475 17.05C304.475 18.2833 303.825 18.9 302.525 18.9ZM309.73 21.35C308.264 22.8167 307.53 24.6167 307.53 26.75C307.53 28.8833 308.264 30.7 309.73 32.2C311.23 33.6667 313.03 34.4 315.13 34.4C317.264 34.4 319.047 33.6667 320.48 32.2C321.914 30.7 322.63 28.8833 322.63 26.75C322.63 24.6167 321.914 22.8167 320.48 21.35C319.047 19.8833 317.264 19.15 315.13 19.15C313.03 19.15 311.23 19.8833 309.73 21.35ZM311.73 38.3C309.597 38.3 307.814 37.4667 306.38 35.8C304.947 34.1333 304.23 32.05 304.23 29.55C304.23 27.0167 305.014 24.5833 306.58 22.25C308.147 19.8833 309.98 18.1167 312.08 16.95C314.18 15.7833 316.297 15.2 318.43 15.2C320.564 15.2 322.347 16.0333 323.78 17.7C325.214 19.3667 325.93 21.4667 325.93 24C325.93 26.5 325.147 28.9333 323.58 31.3C322.014 33.6333 320.18 35.3833 318.08 36.55C315.98 37.7167 313.864 38.3 311.73 38.3ZM333.949 38.3C332.716 38.3 331.716 38.05 330.949 37.55C330.183 37.05 329.799 36.4333 329.799 35.7C329.799 34.9333 330.016 34.3333 330.449 33.9C330.916 33.4333 331.366 33.2 331.799 33.2C332.266 33.2 333.016 33.4 334.049 33.8C335.083 34.2 336.149 34.4 337.249 34.4C338.383 34.4 339.516 34.1167 340.649 33.55C341.783 32.95 342.349 32.2333 342.349 31.4C342.349 30.5333 341.916 29.8667 341.049 29.4C340.216 28.9333 339.199 28.5667 337.999 28.3C336.799 28 335.599 27.6667 334.399 27.3C333.199 26.9333 332.166 26.3833 331.299 25.65C330.466 24.8833 330.049 23.95 330.049 22.85C330.049 21.05 331.199 19.3333 333.499 17.7C335.799 16.0333 338.333 15.2 341.099 15.2C342.433 15.2 343.449 15.45 344.149 15.95C344.883 16.4167 345.249 17.0333 345.249 17.8C345.249 18.5667 345.016 19.1833 344.549 19.65C344.116 20.0833 343.666 20.3 343.199 20.3C342.766 20.3 342.033 20.1 340.999 19.7C339.966 19.3 338.883 19.1 337.749 19.1C336.649 19.1 335.683 19.3333 334.849 19.8C334.049 20.2667 333.649 20.8333 333.649 21.5C333.649 22.1667 334.283 22.75 335.549 23.25C336.849 23.75 338.266 24.15 339.799 24.45C341.333 24.75 342.733 25.35 343.999 26.25C345.299 27.1167 345.949 28.25 345.949 29.65C345.949 31.8167 344.683 33.8 342.149 35.6C339.616 37.4 336.883 38.3 333.949 38.3Z" fill="#202020"/>
</svg>
