<svg width="182" height="58" viewBox="0 0 182 58" fill="none" xmlns="http://www.w3.org/2000/svg">
<path d="M64.0114 34V22.3636H68.6023C69.4811 22.3636 70.2311 22.5208 70.8523 22.8352C71.4773 23.1458 71.9527 23.5871 72.2784 24.1591C72.608 24.7273 72.7727 25.3958 72.7727 26.1648C72.7727 26.9375 72.6061 27.6023 72.2727 28.1591C71.9394 28.7121 71.4564 29.1364 70.8239 29.4318C70.1951 29.7273 69.4337 29.875 68.5398 29.875H65.4659V27.8977H68.142C68.6117 27.8977 69.0019 27.8333 69.3125 27.7045C69.6231 27.5758 69.8542 27.3826 70.0057 27.125C70.161 26.8674 70.2386 26.5473 70.2386 26.1648C70.2386 25.7784 70.161 25.4527 70.0057 25.1875C69.8542 24.9223 69.6212 24.7216 69.3068 24.5852C68.9962 24.4451 68.6042 24.375 68.1307 24.375H66.4716V34H64.0114ZM70.2955 28.7045L73.1875 34H70.4716L67.642 28.7045H70.2955ZM78.2685 34.1705C77.3859 34.1705 76.6226 33.983 75.9787 33.608C75.3385 33.2292 74.8442 32.7027 74.4957 32.0284C74.1473 31.3504 73.973 30.5644 73.973 29.6705C73.973 28.7689 74.1473 27.9811 74.4957 27.3068C74.8442 26.6288 75.3385 26.1023 75.9787 25.7273C76.6226 25.3485 77.3859 25.1591 78.2685 25.1591C79.151 25.1591 79.9124 25.3485 80.5526 25.7273C81.1965 26.1023 81.6927 26.6288 82.0412 27.3068C82.3897 27.9811 82.5639 28.7689 82.5639 29.6705C82.5639 30.5644 82.3897 31.3504 82.0412 32.0284C81.6927 32.7027 81.1965 33.2292 80.5526 33.608C79.9124 33.983 79.151 34.1705 78.2685 34.1705ZM78.2798 32.2955C78.6813 32.2955 79.0166 32.1818 79.2855 31.9545C79.5545 31.7235 79.7571 31.4091 79.8935 31.0114C80.0336 30.6136 80.1037 30.161 80.1037 29.6534C80.1037 29.1458 80.0336 28.6932 79.8935 28.2955C79.7571 27.8977 79.5545 27.5833 79.2855 27.3523C79.0166 27.1212 78.6813 27.0057 78.2798 27.0057C77.8745 27.0057 77.5336 27.1212 77.2571 27.3523C76.9844 27.5833 76.7779 27.8977 76.6378 28.2955C76.5014 28.6932 76.4332 29.1458 76.4332 29.6534C76.4332 30.161 76.5014 30.6136 76.6378 31.0114C76.7779 31.4091 76.9844 31.7235 77.2571 31.9545C77.5336 32.1818 77.8745 32.2955 78.2798 32.2955ZM86.5582 22.3636V34H84.1378V22.3636H86.5582ZM92.4744 34.1705C91.5767 34.1705 90.804 33.9886 90.1562 33.625C89.5123 33.2576 89.0161 32.7386 88.6676 32.0682C88.3191 31.3939 88.1449 30.5966 88.1449 29.6761C88.1449 28.7784 88.3191 27.9905 88.6676 27.3125C89.0161 26.6345 89.5066 26.1061 90.1392 25.7273C90.7756 25.3485 91.5218 25.1591 92.3778 25.1591C92.9536 25.1591 93.4896 25.2519 93.9858 25.4375C94.4858 25.6193 94.9214 25.8939 95.2926 26.2614C95.6676 26.6288 95.9593 27.0909 96.1676 27.6477C96.3759 28.2008 96.4801 28.8485 96.4801 29.5909V30.2557H89.1108V28.7557H94.2017C94.2017 28.4072 94.1259 28.0985 93.9744 27.8295C93.8229 27.5606 93.6127 27.3504 93.3438 27.1989C93.0786 27.0436 92.7699 26.9659 92.4176 26.9659C92.0502 26.9659 91.7244 27.0511 91.4403 27.2216C91.16 27.3883 90.9403 27.6136 90.7812 27.8977C90.6222 28.178 90.5407 28.4905 90.5369 28.8352V30.2614C90.5369 30.6932 90.6165 31.0663 90.7756 31.3807C90.9384 31.6951 91.1676 31.9375 91.4631 32.108C91.7585 32.2784 92.1089 32.3636 92.5142 32.3636C92.7831 32.3636 93.0294 32.3258 93.2528 32.25C93.4763 32.1742 93.6676 32.0606 93.8267 31.9091C93.9858 31.7576 94.107 31.572 94.1903 31.3523L96.429 31.5C96.3153 32.0379 96.0824 32.5076 95.7301 32.9091C95.3816 33.3068 94.9309 33.6174 94.3778 33.8409C93.8286 34.0606 93.1941 34.1705 92.4744 34.1705ZM101.763 37.2727V25.2727H104.149V26.7386H104.257C104.363 26.5038 104.517 26.2652 104.717 26.0227C104.922 25.7765 105.187 25.572 105.513 25.4091C105.842 25.2424 106.251 25.1591 106.74 25.1591C107.376 25.1591 107.964 25.3258 108.501 25.6591C109.039 25.9886 109.469 26.4867 109.791 27.1534C110.113 27.8163 110.274 28.6477 110.274 29.6477C110.274 30.6212 110.117 31.4432 109.803 32.1136C109.492 32.7803 109.068 33.286 108.53 33.6307C107.996 33.9716 107.397 34.142 106.734 34.142C106.265 34.142 105.865 34.0644 105.536 33.9091C105.21 33.7538 104.943 33.5587 104.734 33.3239C104.526 33.0852 104.367 32.8447 104.257 32.6023H104.183V37.2727H101.763ZM104.132 29.6364C104.132 30.1553 104.204 30.608 104.348 30.9943C104.492 31.3807 104.7 31.6818 104.973 31.8977C105.246 32.1098 105.577 32.2159 105.967 32.2159C106.361 32.2159 106.695 32.108 106.967 31.892C107.24 31.6723 107.446 31.3693 107.587 30.983C107.731 30.5928 107.803 30.1439 107.803 29.6364C107.803 29.1326 107.732 28.6894 107.592 28.3068C107.452 27.9242 107.246 27.625 106.973 27.4091C106.7 27.1932 106.365 27.0852 105.967 27.0852C105.573 27.0852 105.24 27.1894 104.967 27.3977C104.698 27.6061 104.492 27.9015 104.348 28.2841C104.204 28.6667 104.132 29.1174 104.132 29.6364ZM114.376 34.1648C113.82 34.1648 113.323 34.0682 112.888 33.875C112.452 33.678 112.107 33.3883 111.854 33.0057C111.604 32.6193 111.479 32.1383 111.479 31.5625C111.479 31.0777 111.568 30.6705 111.746 30.3409C111.924 30.0114 112.166 29.7462 112.473 29.5455C112.78 29.3447 113.128 29.1932 113.518 29.0909C113.912 28.9886 114.325 28.9167 114.757 28.875C115.265 28.822 115.674 28.7727 115.984 28.7273C116.295 28.678 116.52 28.6061 116.661 28.5114C116.801 28.4167 116.871 28.2765 116.871 28.0909V28.0568C116.871 27.697 116.757 27.4186 116.53 27.2216C116.306 27.0246 115.988 26.9261 115.575 26.9261C115.14 26.9261 114.793 27.0227 114.536 27.2159C114.278 27.4053 114.107 27.6439 114.024 27.9318L111.786 27.75C111.899 27.2197 112.123 26.7614 112.456 26.375C112.789 25.9848 113.219 25.6856 113.746 25.4773C114.276 25.2652 114.89 25.1591 115.587 25.1591C116.071 25.1591 116.536 25.2159 116.979 25.3295C117.426 25.4432 117.821 25.6193 118.166 25.858C118.515 26.0966 118.789 26.4034 118.99 26.7784C119.191 27.1496 119.291 27.5947 119.291 28.1136V34H116.996V32.7898H116.928C116.787 33.0625 116.6 33.303 116.365 33.5114C116.13 33.7159 115.848 33.8769 115.518 33.9943C115.189 34.108 114.808 34.1648 114.376 34.1648ZM115.07 32.4943C115.426 32.4943 115.74 32.4242 116.013 32.2841C116.286 32.1402 116.5 31.947 116.655 31.7045C116.81 31.4621 116.888 31.1875 116.888 30.8807V29.9545C116.812 30.0038 116.708 30.0492 116.575 30.0909C116.446 30.1288 116.301 30.1648 116.138 30.1989C115.975 30.2292 115.812 30.2576 115.649 30.2841C115.486 30.3068 115.339 30.3277 115.206 30.3466C114.922 30.3883 114.674 30.4545 114.462 30.5455C114.25 30.6364 114.085 30.7595 113.967 30.9148C113.85 31.0663 113.791 31.2557 113.791 31.483C113.791 31.8125 113.911 32.0644 114.149 32.2386C114.392 32.4091 114.698 32.4943 115.07 32.4943ZM121.169 34V25.2727H123.516V26.7955H123.607C123.766 26.2538 124.033 25.8447 124.408 25.5682C124.783 25.2879 125.214 25.1477 125.703 25.1477C125.824 25.1477 125.955 25.1553 126.095 25.1705C126.235 25.1856 126.358 25.2064 126.464 25.233V27.3807C126.351 27.3466 126.194 27.3163 125.993 27.2898C125.792 27.2633 125.608 27.25 125.442 27.25C125.086 27.25 124.768 27.3277 124.487 27.483C124.211 27.6345 123.991 27.8466 123.828 28.1193C123.669 28.392 123.589 28.7064 123.589 29.0625V34H121.169ZM129.955 34.1648C129.398 34.1648 128.902 34.0682 128.466 33.875C128.03 33.678 127.686 33.3883 127.432 33.0057C127.182 32.6193 127.057 32.1383 127.057 31.5625C127.057 31.0777 127.146 30.6705 127.324 30.3409C127.502 30.0114 127.744 29.7462 128.051 29.5455C128.358 29.3447 128.706 29.1932 129.097 29.0909C129.491 28.9886 129.903 28.9167 130.335 28.875C130.843 28.822 131.252 28.7727 131.562 28.7273C131.873 28.678 132.098 28.6061 132.239 28.5114C132.379 28.4167 132.449 28.2765 132.449 28.0909V28.0568C132.449 27.697 132.335 27.4186 132.108 27.2216C131.884 27.0246 131.566 26.9261 131.153 26.9261C130.718 26.9261 130.371 27.0227 130.114 27.2159C129.856 27.4053 129.686 27.6439 129.602 27.9318L127.364 27.75C127.477 27.2197 127.701 26.7614 128.034 26.375C128.367 25.9848 128.797 25.6856 129.324 25.4773C129.854 25.2652 130.468 25.1591 131.165 25.1591C131.65 25.1591 132.114 25.2159 132.557 25.3295C133.004 25.4432 133.4 25.6193 133.744 25.858C134.093 26.0966 134.367 26.4034 134.568 26.7784C134.769 27.1496 134.869 27.5947 134.869 28.1136V34H132.574V32.7898H132.506C132.366 33.0625 132.178 33.303 131.943 33.5114C131.708 33.7159 131.426 33.8769 131.097 33.9943C130.767 34.108 130.386 34.1648 129.955 34.1648ZM130.648 32.4943C131.004 32.4943 131.318 32.4242 131.591 32.2841C131.864 32.1402 132.078 31.947 132.233 31.7045C132.388 31.4621 132.466 31.1875 132.466 30.8807V29.9545C132.39 30.0038 132.286 30.0492 132.153 30.0909C132.025 30.1288 131.879 30.1648 131.716 30.1989C131.553 30.2292 131.39 30.2576 131.227 30.2841C131.064 30.3068 130.917 30.3277 130.784 30.3466C130.5 30.3883 130.252 30.4545 130.04 30.5455C129.828 30.6364 129.663 30.7595 129.545 30.9148C129.428 31.0663 129.369 31.2557 129.369 31.483C129.369 31.8125 129.489 32.0644 129.727 32.2386C129.97 32.4091 130.277 32.4943 130.648 32.4943ZM140.496 34V22.3636H142.916V26.7386H142.99C143.096 26.5038 143.25 26.2652 143.45 26.0227C143.655 25.7765 143.92 25.572 144.246 25.4091C144.575 25.2424 144.984 25.1591 145.473 25.1591C146.109 25.1591 146.696 25.3258 147.234 25.6591C147.772 25.9886 148.202 26.4867 148.524 27.1534C148.846 27.8163 149.007 28.6477 149.007 29.6477C149.007 30.6212 148.85 31.4432 148.536 32.1136C148.225 32.7803 147.801 33.286 147.263 33.6307C146.729 33.9716 146.13 34.142 145.467 34.142C144.998 34.142 144.598 34.0644 144.268 33.9091C143.943 33.7538 143.676 33.5587 143.467 33.3239C143.259 33.0852 143.1 32.8447 142.99 32.6023H142.882V34H140.496ZM142.865 29.6364C142.865 30.1553 142.937 30.608 143.081 30.9943C143.225 31.3807 143.433 31.6818 143.706 31.8977C143.979 32.1098 144.31 32.2159 144.7 32.2159C145.094 32.2159 145.428 32.108 145.7 31.892C145.973 31.6723 146.179 31.3693 146.32 30.983C146.464 30.5928 146.536 30.1439 146.536 29.6364C146.536 29.1326 146.465 28.6894 146.325 28.3068C146.185 27.9242 145.979 27.625 145.706 27.4091C145.433 27.1932 145.098 27.0852 144.7 27.0852C144.306 27.0852 143.973 27.1894 143.7 27.3977C143.431 27.6061 143.225 27.9015 143.081 28.2841C142.937 28.6667 142.865 29.1174 142.865 29.6364ZM153.111 34.1648C152.554 34.1648 152.058 34.0682 151.622 33.875C151.187 33.678 150.842 33.3883 150.588 33.0057C150.338 32.6193 150.213 32.1383 150.213 31.5625C150.213 31.0777 150.302 30.6705 150.48 30.3409C150.658 30.0114 150.901 29.7462 151.207 29.5455C151.514 29.3447 151.863 29.1932 152.253 29.0909C152.647 28.9886 153.06 28.9167 153.491 28.875C153.999 28.822 154.408 28.7727 154.719 28.7273C155.029 28.678 155.255 28.6061 155.395 28.5114C155.535 28.4167 155.605 28.2765 155.605 28.0909V28.0568C155.605 27.697 155.491 27.4186 155.264 27.2216C155.041 27.0246 154.723 26.9261 154.31 26.9261C153.874 26.9261 153.527 27.0227 153.27 27.2159C153.012 27.4053 152.842 27.6439 152.759 27.9318L150.52 27.75C150.634 27.2197 150.857 26.7614 151.19 26.375C151.524 25.9848 151.954 25.6856 152.48 25.4773C153.01 25.2652 153.624 25.1591 154.321 25.1591C154.806 25.1591 155.27 25.2159 155.713 25.3295C156.16 25.4432 156.556 25.6193 156.901 25.858C157.249 26.0966 157.524 26.4034 157.724 26.7784C157.925 27.1496 158.026 27.5947 158.026 28.1136V34H155.73V32.7898H155.662C155.522 33.0625 155.334 33.303 155.099 33.5114C154.865 33.7159 154.582 33.8769 154.253 33.9943C153.923 34.108 153.543 34.1648 153.111 34.1648ZM153.804 32.4943C154.16 32.4943 154.474 32.4242 154.747 32.2841C155.02 32.1402 155.234 31.947 155.389 31.7045C155.545 31.4621 155.622 31.1875 155.622 30.8807V29.9545C155.546 30.0038 155.442 30.0492 155.31 30.0909C155.181 30.1288 155.035 30.1648 154.872 30.1989C154.709 30.2292 154.546 30.2576 154.384 30.2841C154.221 30.3068 154.073 30.3277 153.94 30.3466C153.656 30.3883 153.408 30.4545 153.196 30.5455C152.984 30.6364 152.819 30.7595 152.702 30.9148C152.584 31.0663 152.526 31.2557 152.526 31.483C152.526 31.8125 152.645 32.0644 152.884 32.2386C153.126 32.4091 153.433 32.4943 153.804 32.4943ZM159.903 34V25.2727H162.324V34H159.903ZM161.119 24.1477C160.759 24.1477 160.451 24.0284 160.193 23.7898C159.939 23.5473 159.812 23.2576 159.812 22.9205C159.812 22.5871 159.939 22.3011 160.193 22.0625C160.451 21.8201 160.759 21.6989 161.119 21.6989C161.479 21.6989 161.786 21.8201 162.04 22.0625C162.297 22.3011 162.426 22.5871 162.426 22.9205C162.426 23.2576 162.297 23.5473 162.04 23.7898C161.786 24.0284 161.479 24.1477 161.119 24.1477ZM166.286 25.2727L167.888 28.3239L169.53 25.2727H172.013L169.484 29.6364L172.081 34H169.609L167.888 30.983L166.195 34H163.695L166.286 29.6364L163.786 25.2727H166.286ZM177.081 34.1705C176.198 34.1705 175.435 33.983 174.791 33.608C174.151 33.2292 173.657 32.7027 173.308 32.0284C172.96 31.3504 172.786 30.5644 172.786 29.6705C172.786 28.7689 172.96 27.9811 173.308 27.3068C173.657 26.6288 174.151 26.1023 174.791 25.7273C175.435 25.3485 176.198 25.1591 177.081 25.1591C177.964 25.1591 178.725 25.3485 179.365 25.7273C180.009 26.1023 180.505 26.6288 180.854 27.3068C181.202 27.9811 181.376 28.7689 181.376 29.6705C181.376 30.5644 181.202 31.3504 180.854 32.0284C180.505 32.7027 180.009 33.2292 179.365 33.608C178.725 33.983 177.964 34.1705 177.081 34.1705ZM177.092 32.2955C177.494 32.2955 177.829 32.1818 178.098 31.9545C178.367 31.7235 178.57 31.4091 178.706 31.0114C178.846 30.6136 178.916 30.161 178.916 29.6534C178.916 29.1458 178.846 28.6932 178.706 28.2955C178.57 27.8977 178.367 27.5833 178.098 27.3523C177.829 27.1212 177.494 27.0057 177.092 27.0057C176.687 27.0057 176.346 27.1212 176.07 27.3523C175.797 27.5833 175.59 27.8977 175.45 28.2955C175.314 28.6932 175.246 29.1458 175.246 29.6534C175.246 30.161 175.314 30.6136 175.45 31.0114C175.59 31.4091 175.797 31.7235 176.07 31.9545C176.346 32.1818 176.687 32.2955 177.092 32.2955Z" fill="white"/>
<rect width="43" height="58" rx="21.5" fill="#30EF00" fill-opacity="0.13"/>
<rect x="20" y="18" width="3" height="22" rx="1.5" fill="white"/>
</svg>
